<svg width="318" height="302" viewBox="0 0 318 302" fill="none" xmlns="http://www.w3.org/2000/svg">
<g clip-path="url(#clip0)">
<path d="M317.747 0.293411H0.346054V301.787H317.747V0.293411Z" fill="#43B448"/>
<path d="M261.641 111.483C292.534 164.311 274.784 232.199 222.005 263.115C169.226 294.03 101.396 276.274 70.5035 223.445C55.6598 198.061 52.0494 169.201 58.1601 142.629C58.1601 142.629 58.1645 142.627 58.1667 142.619L58.166 142.607C58.1946 142.499 58.3107 142.069 58.4488 141.398C59.055 138.478 59.3526 132.643 55.4997 128.845C50.6299 124.036 48.0767 124.621 47.2303 121.429C45.7785 115.957 55.0074 113.803 57.1822 121.254C59.3136 128.553 64.1532 123.861 64.3531 123.665L64.3553 123.657C73.3682 102.654 88.9252 84.2463 110.142 71.8181C162.922 40.9025 230.752 58.6597 261.641 111.483Z" fill="#57C457"/>
<path d="M85.4728 91.4763C85.4728 91.4701 85.4789 91.464 85.4905 91.4586L85.4843 91.4709C85.4789 91.4763 85.4728 91.4763 85.4728 91.4763Z" fill="#57C457"/>
<path d="M86.3441 90.5585C85.8857 91.0681 85.569 91.3799 85.4897 91.4586C85.7725 91.1586 86.0554 90.8586 86.3441 90.5585Z" fill="#57C457"/>
<path d="M265.503 25.0137H214.31C214.31 25.0137 216.558 10.5619 222.891 11.1244C224.642 11.2788 225.835 13.0584 226.616 14.9659C227.098 16.1432 228.779 16.0593 229.128 14.8379C230.804 8.9632 234.23 0 239.539 0C245.03 0 245.212 10.2567 244.814 16.502C244.755 17.4433 245.973 17.8617 246.501 17.0822C247.95 14.949 250.064 12.8995 252.636 13.4944C254.831 14.0018 255.805 16.2799 256.205 18.6787C256.326 19.3993 257.323 19.4927 257.581 18.8096C258.918 15.2519 261.29 10.078 263.81 9.96989C267.657 9.80444 265.503 25.0137 265.503 25.0137Z" fill="#57C457"/>
<path d="M51.7305 101.93H0.537811C0.537811 101.93 2.7846 87.4781 9.11793 88.0407C10.8688 88.1951 12.062 89.9747 12.8437 91.8822C13.325 93.0595 15.0068 92.9756 15.3557 91.7542C17.0302 85.8802 20.4562 76.9163 25.7661 76.9163C31.2567 76.9163 31.4389 87.173 31.0407 93.4183C30.9819 94.3596 32.2001 94.778 32.7276 93.9985C34.1765 91.8653 36.291 89.8151 38.8618 90.41C41.0579 90.9174 42.0307 93.1962 42.4318 95.5949C42.5523 96.3156 43.5501 96.409 43.8072 95.7251C45.1444 92.1675 47.5169 86.9935 50.0355 86.8855C53.8847 86.7207 51.7305 101.93 51.7305 101.93Z" fill="#57C457"/>
<path d="M47.5382 23.6143C47.5382 23.6143 49.5352 10.778 55.1587 11.2781C56.7149 11.4163 57.7736 12.9951 58.4672 14.6901C58.8948 15.7343 60.3885 15.6615 60.6986 14.5761C62.1864 9.36029 65.2296 1.39864 69.9451 1.39864C74.8222 1.39864 74.9838 10.5074 74.6297 16.0549C74.5768 16.891 75.6583 17.2616 76.1293 16.5689C77.4158 14.6732 79.293 12.8547 81.5765 13.3819C86.0238 14.4092 84.8262 23.6143 84.8262 23.6143H47.5382Z" fill="#57C457"/>
<path d="M0 178.574C0 178.574 1.99698 165.737 7.62057 166.238C9.17672 166.376 10.2355 167.955 10.929 169.651C11.3566 170.695 12.8511 170.621 13.1604 169.537C14.6482 164.32 17.6914 156.359 22.4069 156.359C27.2847 156.359 27.4457 165.468 27.0915 171.016C27.0386 171.852 28.1201 172.222 28.5911 171.53C29.8776 169.635 31.7548 167.815 34.0383 168.343C38.4856 169.369 37.288 178.575 37.288 178.575H0V178.574Z" fill="#57C457"/>
<path d="M280.565 96.0303C280.565 96.0303 282.562 83.1933 288.186 83.694C289.742 83.8323 290.8 85.4111 291.494 87.1061C291.922 88.1503 293.415 88.0767 293.725 86.9913C295.212 81.7755 298.256 73.8146 302.972 73.8146C307.85 73.8146 308.01 82.9234 307.657 88.4709C307.604 89.3062 308.685 89.6776 309.156 88.9849C310.443 87.0899 312.32 85.2706 314.603 85.7986C319.051 86.8252 317.853 96.031 317.853 96.031H280.565V96.0303Z" fill="#57C457"/>
<path d="M162.381 41.9349C162.381 41.9349 145.232 42.1592 146.114 49.2899C146.996 56.4206 156.902 46.2624 166.238 48.7376C175.574 51.2135 176.98 41.3106 162.381 41.9349Z" fill="#57C457"/>
<path d="M223.303 54.2719C222.644 53.0784 221.365 52.3614 220.005 52.2908C217.305 52.1519 212.187 52.7372 212.153 59.1862C212.109 67.0942 226.475 60.012 223.303 54.2719Z" fill="#57C457"/>
<path d="M183.981 47.7817C183.891 47.136 183.442 46.5978 182.847 46.3338C181.667 45.8102 179.282 45.1969 178.167 48.0685C176.799 51.59 184.417 50.8848 183.981 47.7817Z" fill="#57C457"/>
<path d="M292.719 165.207C292.719 165.207 294.164 182.31 286.987 182.126C279.81 181.941 288.948 171.085 285.578 162.027C282.21 152.968 291.92 150.604 292.719 165.207Z" fill="#57C457"/>
<path d="M285.281 143.262C285.931 143.29 286.51 143.684 286.831 144.251C287.466 145.376 288.308 147.691 285.56 149.081C282.192 150.787 282.152 143.13 285.281 143.262Z" fill="#57C457"/>
<path d="M241.993 268.761C241.993 268.761 257.193 260.811 253.188 254.847C249.185 248.883 244.929 262.423 235.483 264.434C226.037 266.445 229.25 275.916 241.993 268.761Z" fill="#57C457"/>
<path d="M107.202 142.006C107.47 142.6 107.592 142.943 107.592 142.943C107.592 142.943 107.508 143.083 107.344 143.343C105.288 146.585 90.6078 168.373 69.6585 164.707C69.3419 164.652 69.023 164.591 68.7041 164.524C68.5587 164.494 68.4132 164.463 68.2684 164.43C61.7786 163.013 55.8994 160.555 50.8048 157.759C50.4102 157.542 50.0223 157.325 49.638 157.104C40.0278 151.608 33.4028 145.055 31.026 142.524C30.3875 141.844 30.0561 141.454 30.0561 141.454C30.1847 141.373 30.3126 141.293 30.4404 141.213C41.4885 134.308 51.0384 129.887 59.2754 127.295C59.7361 127.15 60.1931 127.01 60.6464 126.877C69.9958 124.113 77.6039 123.738 83.7579 124.73C84.3597 124.827 84.9482 124.937 85.5235 125.058C99.9101 128.117 105.739 138.773 107.202 142.006Z" fill="#184211"/>
<path d="M107.202 142.006C107.47 142.6 107.592 142.943 107.592 142.943C107.592 142.943 107.508 143.083 107.344 143.343C101.047 142.813 92.7627 142.504 83.8593 142.339C83.3465 142.33 82.8307 142.321 82.3127 142.312C76.0323 142.21 69.4866 142.174 63.1474 142.182C62.5824 142.182 62.0203 142.183 61.459 142.184C49.2508 142.212 37.9677 142.39 31.026 142.524C30.3875 141.843 30.0561 141.453 30.0561 141.453C30.1847 141.372 30.3126 141.292 30.4404 141.212C38.9808 141.045 54.7135 140.798 70.5961 140.873C71.1721 140.875 71.7474 140.879 72.3234 140.881H72.3241C79.8668 140.927 87.386 141.048 94.1264 141.288C94.6642 141.307 95.1961 141.326 95.7222 141.347C99.9586 141.514 103.852 141.729 107.202 142.006Z" fill="#24561A"/>
<path d="M63.3495 141.926L63.1467 142.182L50.804 157.759C50.4095 157.543 50.0216 157.325 49.6373 157.105L61.4583 142.185L62.3157 141.104L63.3495 141.926Z" fill="#A6D406"/>
<path d="M72.5137 141.111L71.4983 141.957L70.5953 140.874L59.2739 127.296C59.7346 127.15 60.1916 127.011 60.6449 126.878L72.3227 140.882H72.3234L72.5137 141.111Z" fill="#24561A"/>
<path d="M84.0614 142.021L83.8593 142.34L69.6578 164.708C69.3411 164.653 69.0223 164.591 68.7034 164.525C68.5579 164.494 68.4125 164.464 68.2677 164.431L82.3127 142.313L82.9475 141.312L84.0614 142.021Z" fill="#24561A"/>
<path d="M85.5227 125.058L95.7214 141.348L95.7927 141.462L94.673 142.163L94.1256 141.289L83.7572 124.73C84.3589 124.827 84.9474 124.937 85.5227 125.058Z" fill="#A6D406"/>
<path d="M114.213 92.4043C114.311 93.6727 114.371 94.878 114.408 95.9869C114.526 99.532 114.387 102.066 114.378 102.27C114.378 102.276 114.375 102.279 114.375 102.279L90.0942 121.462C90.0942 121.462 90.0905 121.464 90.0846 121.463C89.8848 121.424 87.3904 120.971 83.9717 120.034C82.9034 119.739 81.7455 119.401 80.5361 119.011C74.0515 116.916 66.1708 113.399 63.4273 108.147C62.5817 106.533 62.2275 105.232 62.2239 104.174C62.2268 103.629 62.3135 103.151 62.4803 102.723C63.8932 99.1231 70.7327 99.5247 71.9119 98.4069C73.5041 96.8972 63.9593 90.535 55.1881 87.6002C46.9871 84.8544 38.576 79.1731 40.9705 72.838C41.0586 72.6093 41.1549 72.3858 41.2702 72.1578C41.3716 71.9468 41.487 71.7401 41.62 71.5269C45.8108 64.6756 54.1015 71.0217 55.7326 67.9604C57.3335 64.9506 29.8232 45.5065 41.5781 36.1381C41.7574 35.991 41.9579 35.8432 42.1615 35.6991C42.3488 35.5344 42.5354 35.3763 42.7235 35.2329C54.5555 25.9675 67.0635 57.2633 70.3609 56.4044C73.7142 55.5278 69.4727 45.983 77.1035 43.4938C77.3416 43.4151 77.5693 43.3497 77.7986 43.3004C78.0469 43.2409 78.2872 43.1989 78.5296 43.1666C85.2421 42.3062 88.8106 51.8143 89.5784 60.4326C90.3947 69.6532 94.3615 80.4217 96.1946 79.2253C97.5583 78.334 98.7522 71.5857 102.579 71.046C103.033 70.9835 103.518 71.0099 104.048 71.1335C105.075 71.3828 106.258 72.0299 107.63 73.2285C112.093 77.1163 113.683 85.6052 114.213 92.4043Z" fill="#184211"/>
<path d="M42.7221 35.2307L102.809 111.415L101.661 112.321L41.5751 36.1374C41.7559 35.9881 41.9572 35.8425 42.1607 35.6991C42.3466 35.5336 42.5318 35.3748 42.7221 35.2307Z" fill="#24561A"/>
<path d="M77.0087 78.9929L76.8721 79.7099L76.7325 80.4298L76.468 80.3776L40.7449 73.5447L40.9683 72.838C41.0572 72.6123 41.1527 72.3873 41.2702 72.1578L75.0852 78.6245L76.1814 78.8333L77.0087 78.9929Z" fill="#24561A"/>
<path d="M101.635 110.217L101.499 110.934L101.359 111.654L101.094 111.601L62.2231 104.171C62.2246 103.63 62.312 103.151 62.4803 102.726L99.7117 109.848L100.808 110.057L101.635 110.217Z" fill="#A6D406"/>
<path d="M79.2651 43.1107L77.6119 79.4665L77.6002 79.743L76.8721 79.7091L76.1403 79.6783L76.1807 78.8326L76.2292 77.7134L77.7956 43.3004C78.0454 43.2394 78.2864 43.1982 78.5267 43.1636L79.2651 43.1107Z" fill="#24561A"/>
<path d="M104.042 71.1313L102.238 110.69L102.227 110.967L101.499 110.933L100.767 110.902L100.807 110.056L100.856 108.937L102.578 71.0452C103.03 70.9805 103.515 71.007 104.042 71.1313Z" fill="#24561A"/>
<path d="M223.12 248.496C221.865 248.221 220.682 247.927 219.599 247.639C216.136 246.718 213.727 245.843 213.532 245.775C213.527 245.772 213.525 245.768 213.525 245.768L202.068 216.648C202.068 216.648 202.067 216.643 202.069 216.638C202.165 216.456 203.332 214.172 205.237 211.135C205.834 210.186 206.5 209.163 207.23 208.106C211.149 202.436 216.853 195.831 222.732 194.709C224.539 194.36 225.901 194.397 226.926 194.703C227.451 194.864 227.889 195.088 228.253 195.374C231.322 197.794 228.935 204.301 229.672 205.77C230.667 207.753 239.606 200.366 245.006 192.729C250.056 185.587 258.007 179.1 263.432 183.27C263.627 183.422 263.816 183.58 264.002 183.759C264.177 183.919 264.343 184.091 264.511 184.282C269.911 190.342 261.353 196.519 263.837 198.992C266.279 201.422 293.116 180.455 298.741 194.578C298.831 194.794 298.915 195.031 298.995 195.27C299.1 195.501 299.198 195.727 299.282 195.951C304.785 210.117 270.871 213.092 270.739 216.535C270.607 220.04 281.075 218.719 281.253 226.837C281.26 227.091 281.256 227.33 281.237 227.566C281.222 227.824 281.192 228.069 281.154 228.313C280.026 235.067 269.79 235.745 261.232 233.971C252.078 232.069 240.507 232.765 241.129 234.89C241.592 236.471 247.769 239.599 247.173 243.464C247.101 243.921 246.934 244.384 246.66 244.86C246.119 245.782 245.148 246.739 243.589 247.718C238.521 250.909 229.848 249.969 223.12 248.496Z" fill="#184211"/>
<path d="M299.282 195.953L208.069 231.899L207.527 230.522L298.741 194.576C298.832 194.795 298.914 195.032 298.993 195.271C299.099 195.501 299.199 195.726 299.282 195.953Z" fill="#24561A"/>
<path d="M246.954 216.378L246.3 216.037L245.645 215.69L245.773 215.45L262.813 182.845L263.432 183.268C263.625 183.42 263.814 183.579 264.001 183.759L247.872 214.623L247.35 215.623L246.954 216.378Z" fill="#24561A"/>
<path d="M209.57 231.111L208.917 230.769L208.261 230.424L208.389 230.183L226.926 194.704C227.45 194.864 227.888 195.088 228.25 195.375L210.488 229.355L209.966 230.355L209.57 231.111Z" fill="#A6D406"/>
<path d="M280.989 229.045L246.319 216.824L246.055 216.732L246.3 216.037L246.544 215.337L247.35 215.624L248.418 215.998L281.235 227.566C281.221 227.827 281.19 228.071 281.154 228.314L280.989 229.045Z" fill="#24561A"/>
<path d="M246.66 244.859L208.936 231.557L208.672 231.465L208.918 230.769L209.161 230.07L209.968 230.356L211.035 230.73L247.171 243.466C247.1 243.922 246.934 244.385 246.66 244.859Z" fill="#24561A"/>
<path d="M125.811 228.377C125.938 229.292 125.965 229.807 125.965 229.807C125.965 229.807 125.795 229.964 125.468 230.251C121.377 233.831 92.7142 257.555 65.7145 244.18C65.3068 243.979 64.8975 243.767 64.4905 243.548C64.3046 243.449 64.1194 243.349 63.9358 243.248C55.6841 238.722 48.6785 233.026 42.8749 227.183C42.426 226.732 41.9844 226.28 41.5509 225.826C30.6909 214.507 24.3106 202.948 22.0932 198.557C21.4981 197.378 21.2034 196.715 21.2034 196.715C21.4099 196.657 21.6171 196.598 21.8221 196.542C39.5958 191.586 54.341 189.406 66.5705 189.184C67.2553 189.17 67.9312 189.164 68.6005 189.164C82.409 189.155 92.8979 191.694 100.864 195.507C101.643 195.881 102.399 196.265 103.132 196.661C121.458 206.583 125.116 223.397 125.811 228.377Z" fill="#184211"/>
<path d="M125.811 228.377C125.938 229.292 125.965 229.807 125.965 229.807C125.965 229.807 125.795 229.964 125.468 230.251C117.123 227.007 105.991 223.268 93.9588 219.477C93.266 219.259 92.5673 219.04 91.8678 218.82C83.3744 216.165 74.4952 213.493 65.8769 210.963C65.1091 210.737 64.345 210.513 63.5816 210.29C46.982 205.436 31.5785 201.157 22.0932 198.557C21.4981 197.378 21.2034 196.715 21.2034 196.715C21.4099 196.656 21.6171 196.598 21.8221 196.542C33.4939 199.737 54.9692 205.706 76.5216 212.17C77.3041 212.403 78.0836 212.64 78.8654 212.874L78.8661 212.873C89.0964 215.959 99.265 219.137 108.329 222.163C109.052 222.404 109.766 222.644 110.473 222.883C116.165 224.806 121.369 226.658 125.811 228.377Z" fill="#24561A"/>
<path d="M66.2553 210.697L65.8769 210.963L42.8749 227.184C42.426 226.732 41.9844 226.281 41.5509 225.827L63.5816 210.291L65.1782 209.166L66.2553 210.697Z" fill="#24561A"/>
<path d="M79.0336 213.261L77.3159 214.005L76.5223 212.171L66.5712 189.185C67.256 189.171 67.9319 189.165 68.6013 189.165L78.8661 212.875L78.8669 212.874L79.0336 213.261Z" fill="#24561A"/>
<path d="M94.3607 219.126L93.9588 219.477L65.7145 244.181C65.3068 243.979 64.8975 243.768 64.4905 243.549C64.3046 243.45 64.1194 243.35 63.9358 243.248L91.8678 218.821L93.1308 217.716L94.3607 219.126Z" fill="#24561A"/>
<path d="M103.132 196.662L110.474 222.883L110.525 223.066L108.723 223.57L108.329 222.164L100.863 195.508C101.643 195.881 102.399 196.266 103.132 196.662Z" fill="#A6D406"/>
<path d="M278.024 68.495C277.902 69.0841 277.773 69.676 277.639 70.2709C275.905 77.9686 273.121 86.1611 268.732 94.0397C268.633 94.2147 268.535 94.3904 268.436 94.5654C268.217 94.9515 267.993 95.3309 267.764 95.703C252.671 120.315 217.358 115.689 212.206 114.869C211.794 114.802 211.575 114.761 211.575 114.761C211.575 114.761 211.335 114.329 210.973 113.522C209.001 109.13 203.411 93.6249 213.227 76.2339C213.619 75.5397 214.035 74.8419 214.478 74.1433C218.999 66.989 226.215 59.5796 237.422 52.546C237.965 52.2055 238.517 51.8651 239.08 51.5261C249.113 45.4727 262.181 39.7215 279.124 34.6806C279.319 34.6218 279.515 34.5644 279.713 34.5064C279.713 34.5064 279.81 35.1932 279.928 36.455C280.364 41.1473 281.071 53.7777 278.024 68.495Z" fill="#184211"/>
<path d="M279.927 36.455C273.554 43.3997 263.239 54.7234 252.246 67.1243C251.74 67.6942 251.233 68.2671 250.726 68.8406C245.023 75.2875 239.179 81.9807 233.643 88.465C233.188 88.9996 232.733 89.5349 232.28 90.0658C224.451 99.2739 217.324 107.983 212.206 114.87C211.794 114.803 211.575 114.762 211.575 114.762C211.575 114.762 211.335 114.33 210.973 113.523C213.701 109.865 216.98 105.71 220.618 101.249C221.068 100.695 221.527 100.135 221.991 99.5703C227.802 92.4954 234.434 84.7323 241.162 77.0141C241.676 76.4243 242.191 75.8353 242.707 75.2456C256.899 59.0141 271.283 43.2217 279.123 34.6814C279.319 34.6225 279.515 34.5652 279.713 34.5071C279.711 34.5064 279.808 35.1924 279.927 36.455Z" fill="#24561A"/>
<path d="M278.024 68.495C277.902 69.0841 277.773 69.676 277.639 70.2709L250.726 68.8406L250.282 68.8171L250.377 67.0251L252.246 67.1236L278.024 68.495Z" fill="#24561A"/>
<path d="M242.995 77.1398L241.223 77.4126L241.161 77.0133L237.421 52.546C237.964 52.2055 238.517 51.8651 239.079 51.5261L242.706 75.2448L242.995 77.1398Z" fill="#24561A"/>
<path d="M268.732 94.0397C268.633 94.2147 268.535 94.3904 268.436 94.5655C268.216 94.9515 267.993 95.331 267.764 95.703L232.28 90.0651L231.775 89.9849L232.056 88.212L233.644 88.4642L268.732 94.0397Z" fill="#24561A"/>
<path d="M222.387 100.912L220.667 101.421L220.617 101.248L213.227 76.2339C213.618 75.5397 214.034 74.8419 214.477 74.1433L221.99 99.5695L222.387 100.912Z" fill="#24561A"/>
<path d="M142.746 82.2653C121.807 56.1875 111.765 36.1866 113.648 24.1453C113.724 23.6526 113.392 23.1893 112.903 23.1114C112.414 23.0341 111.956 23.3709 111.878 23.8629C110.715 31.3024 113.713 41.4187 120.791 53.9307C125.977 63.099 133.356 73.5734 142.745 85.1243V82.2653H142.746Z" fill="#24561A"/>
<path d="M115.403 42.2459C115.403 42.2459 109.33 46.661 102.06 35.5756C102.06 35.5756 113.254 31.4789 115.403 42.2459Z" fill="#184211"/>
<path d="M118.859 48.1567C118.859 48.1567 114.155 42.279 124.711 34.3321C124.711 34.3321 129.385 45.391 118.859 48.1567Z" fill="#184211"/>
<path d="M112.691 29.667C112.691 29.667 106.315 25.7094 113.644 14.6629C113.644 14.6622 121.701 23.5151 112.691 29.667Z" fill="#184211"/>
<path d="M125.448 60.265C125.448 60.265 121.211 66.4949 110.656 58.5457C110.656 58.5457 119.818 50.8672 125.448 60.265Z" fill="#184211"/>
<path d="M129.871 65.7485C129.871 65.7485 124.232 60.7812 133.268 51.1099C133.267 51.1099 139.765 61.1864 129.871 65.7485Z" fill="#184211"/>
<path d="M135.189 73.8638C135.189 73.8638 131.071 80.1732 120.368 72.4284C120.367 72.4284 129.384 64.5756 135.189 73.8638Z" fill="#24561A"/>
<path d="M292.476 95.3971C292.026 95.1905 291.495 95.3927 291.291 95.8464C286.269 107.023 266.765 118.22 234.691 128.417L233.973 130.538C248.02 126.128 259.814 121.501 269.097 116.75C281.824 110.234 289.839 103.452 292.922 96.5935C293.125 96.1398 292.926 95.6038 292.476 95.3971Z" fill="#24561A"/>
<path d="M279.963 109.987C279.963 109.987 282.629 117.048 294.739 111.83C294.739 111.831 287.624 102.19 279.963 109.987Z" fill="#184211"/>
<path d="M273.857 113.003C273.857 113.003 280.987 110.708 276.502 98.2069C276.502 98.2069 266.574 104.845 273.857 113.003Z" fill="#184211"/>
<path d="M289.082 100.99C289.082 100.99 296.561 101.227 296.461 87.9319C296.461 87.9319 284.909 90.8468 289.082 100.99Z" fill="#184211"/>
<path d="M261.758 119.453C261.758 119.453 261.901 127.008 275.047 126.236C275.047 126.236 271.579 114.733 261.758 119.453Z" fill="#184211"/>
<path d="M255.077 121.575C255.077 121.575 262.492 120.56 260.216 107.464C260.216 107.464 249.301 112.268 255.077 121.575Z" fill="#184211"/>
<path d="M246.214 125.397C246.214 125.397 246.215 132.954 259.373 132.432C259.373 132.432 256.122 120.866 246.214 125.397Z" fill="#184211"/>
<path d="M165.246 291.668C216.464 291.668 257.985 289.028 257.985 285.77C257.985 282.513 216.464 279.872 165.246 279.872C114.027 279.872 72.5063 282.513 72.5063 285.77C72.5063 289.028 114.027 291.668 165.246 291.668Z" fill="#379937"/>
<path d="M217.649 285.784H194.98V96.4075H247.2L230.164 274.263C229.538 280.798 224.123 285.784 217.649 285.784Z" fill="#002E49"/>
<path d="M252.291 96.406H78.2732C76.3629 96.406 74.8141 94.8559 74.8141 92.944V84.4375C74.8141 82.5255 76.3629 80.9754 78.2732 80.9754H252.291C254.202 80.9754 255.75 82.5248 255.75 84.4375V92.944C255.75 94.8559 254.202 96.406 252.291 96.406Z" fill="#1D5B79"/>
<path d="M229.061 96.4075L228.633 101.215L212.239 285.785H110.824C104.199 285.785 98.6684 280.72 98.0821 274.115L83.7285 112.538L82.2965 96.4075H229.061Z" fill="#0D415D"/>
<path d="M229.061 96.4075L228.403 102.832L83.3773 107.647L82.2965 96.4075H229.061Z" fill="#002E49"/>
<path d="M119.503 183.547L114.035 180.428L131.697 180.154L140.829 195.806L135.361 192.85L128.049 205.752C126.256 208.916 125.227 212.467 125.141 216.102C125.138 216.24 125.136 216.379 125.135 216.52L115.184 199.308C115.184 199.309 110.863 191.866 119.503 183.547Z" fill="#FFFBF4"/>
<path d="M168.375 225.676L168.271 231.974L159.539 216.607L168.86 201.066L168.901 207.286L183.719 207.499C187.352 207.551 190.959 206.748 194.184 205.073C194.307 205.01 194.43 204.945 194.554 204.877L184.26 221.887C184.26 221.888 179.817 229.258 168.375 225.676Z" fill="#FFFBF4"/>
<path d="M181.072 162.405L185.954 159.565L177.319 174.988L159.21 175.029L164.509 171.781L157.342 159.565C157.342 159.565 160.019 152.665 167.417 151.23C175.041 149.751 181.072 162.405 181.072 162.405Z" fill="#ECE4DA"/>
<path d="M152.475 207.107V225.412H136.481C136.481 225.412 129.48 225.251 128.361 217.287C127.431 210.671 131.15 207.107 131.15 207.107H152.475Z" fill="#ECE4DA"/>
<path d="M172.733 186.373L188.47 177.045L196.62 190.818C196.62 190.818 198.587 197.655 192.181 202.509C186.947 206.474 183.6 204.737 183.6 204.737L172.733 186.373Z" fill="#ECE4DA"/>
<path d="M127.431 168.99L135.661 154.569C135.661 154.569 138.286 150.218 142.387 150.218H161.717C161.717 150.218 157.725 153.255 153.706 159.604C149.616 166.065 143.371 177.965 143.371 177.965L127.431 168.99Z" fill="#FFFBF4"/>
<path d="M265.669 302C287.438 302.012 305.086 299.864 305.088 297.202C305.089 294.54 287.444 292.372 265.675 292.36C243.906 292.347 226.258 294.495 226.256 297.158C226.255 299.82 243.901 301.988 265.669 302Z" fill="#379937"/>
<path d="M256.14 162.18C256.14 162.18 247.951 170.192 244.176 172.862C244.176 172.862 241.827 172.32 236.928 170.927V178.275C240.068 179.528 243.218 180.554 245.235 180.619C245.235 180.619 252.557 176.218 258.055 170.426L256.14 162.18Z" fill="#FCC13D"/>
<path d="M257.408 292.32L251.803 292.316L248.258 249.183L252.291 209.623L267.438 208.212L258.329 253.304C260.89 263.727 258.737 277.062 257.408 292.32Z" fill="#160F09"/>
<path d="M257.57 291.982C257.57 291.982 257.908 292.454 257.907 293.429C257.906 294.404 257.808 297.767 257.808 297.767L241.403 297.757C241.403 297.757 241.345 295.199 243.424 293.836C245.502 292.473 248.696 293.811 251.749 291.668C251.75 291.668 252.566 292.416 257.57 291.982Z" fill="#160F09"/>
<path d="M288.104 292.012C287.026 280.32 281.947 256.79 278.702 251.714L278.696 207.604L263.891 211.108L268.291 251.803L282.429 291.686C284.117 292.632 286.078 292.454 288.104 292.012Z" fill="#1E160F"/>
<path d="M288.104 292.012C288.104 292.012 288.478 292.51 288.477 293.485C288.477 294.459 288.474 297.784 288.474 297.784L272.084 297.775C272.084 297.775 272.025 295.217 274.104 293.854C276.183 292.49 279.376 293.829 282.429 291.686C282.429 291.686 283.099 292.446 288.104 292.012Z" fill="#160F09"/>
<path d="M250.533 211.027C251.255 212.246 253.721 213.177 255.842 213.695C255.988 213.731 256.132 213.764 256.274 213.796C256.644 213.878 256.996 213.947 257.323 214.002C260.803 214.585 264.307 214.845 267.83 214.841C268.483 214.84 269.175 214.795 269.886 214.705C270.029 214.687 270.174 214.667 270.319 214.647C273.984 214.11 278.06 212.514 280.102 210.466L277.127 197.111L282.818 163.908L275.204 161.294L274.795 161.154L273.086 160.568L271.139 159.899L263.674 161.178L262.364 161.352L261.902 161.414L256.139 162.183L250.533 211.027Z" fill="#EDB23E"/>
<path d="M258.316 137.528C258.316 137.528 256.287 138.525 256.53 141.966C256.773 145.408 258.024 145.931 258.024 145.931C258.024 145.931 260.935 138.752 258.316 137.528Z" fill="#6A3E1B"/>
<path d="M264.927 154.308L264.624 158.582L264.485 161.144C266.697 163.264 270.986 160.678 270.986 160.678L272.211 154.443C271.179 153.536 268.186 153.799 266.374 154.061C265.519 154.186 264.927 154.308 264.927 154.308Z" fill="#FBB28F"/>
<path d="M264.927 154.308L264.624 158.582C267.577 158.285 270.486 154.614 270.486 154.614L266.373 154.062C265.519 154.186 264.927 154.308 264.927 154.308Z" fill="#ED867A"/>
<path d="M258.476 139.287C258.476 139.287 254.174 136.573 255.994 132.985C257.814 129.398 262.962 132.777 268.176 133.723C276.041 135.149 277.804 138.395 277.055 142.664C276.307 146.934 275.619 152.699 273.4 154.598C271.181 156.497 270.239 153.292 269.576 150.477C268.912 147.662 263.751 138.645 258.476 139.287Z" fill="#6A3E1B"/>
<path d="M257.598 142.888C257.582 143.034 257.565 143.182 257.551 143.332C257.293 146.009 257.339 149.308 257.455 152.002C257.578 154.861 260.038 157.055 262.889 156.848C266.323 156.598 270.582 156.099 272.623 155.1C273.244 154.797 273.657 154.447 273.783 154.044C274.074 153.105 274.334 151.805 274.559 150.384C275.243 146.076 275.615 140.64 275.615 140.64C272.229 135.125 260.766 135.645 258.592 139.087C258.094 139.874 257.781 141.245 257.598 142.888Z" fill="#FBB28F"/>
<path d="M275.082 146.423C275.082 146.423 273.439 145.027 271.665 146.919L270.491 146.769C270.491 146.769 270.866 144.364 270.463 142.983C270.059 141.601 267.809 141.349 267.669 139.762C267.669 139.762 262.097 141.197 258.476 139.287C254.854 137.377 267.063 132.489 272.169 136.278C277.274 140.068 276.458 142.424 275.082 146.423Z" fill="#6A3E1B"/>
<path d="M272.623 155.1C273.243 154.797 273.656 154.447 273.782 154.044C274.073 153.105 274.333 151.804 274.558 150.383L271.338 152.041C271.338 152.042 271.03 154.147 272.623 155.1Z" fill="#6A3E1B"/>
<path d="M271.665 146.919C271.665 146.919 273.739 144.969 275.082 146.423C276.562 148.026 274.692 152.58 271.338 152.043L271.665 146.919Z" fill="#FBB28F"/>
<path d="M245.655 200.451L227.248 203.668C225.613 203.953 224.056 202.857 223.774 201.221L221.218 186.353L220.309 181.063L218.841 172.667L216.959 161.901C216.515 159.37 218.206 156.958 220.736 156.516L220.897 156.486C222.585 156.191 223.712 154.586 223.417 152.896L220.543 136.466L229.381 134.919L232.255 151.35C232.55 153.037 234.156 154.165 235.842 153.869C237.108 153.649 238.342 153.958 239.316 154.644C240.291 155.328 241.002 156.384 241.224 157.651L243.075 168.234L244.575 176.814L245.552 182.411L248.094 196.978C248.379 198.61 247.286 200.165 245.655 200.451Z" fill="#FFFBF4"/>
<path d="M245.503 181.966L221.219 186.353L220.309 181.063L218.841 172.667L243.075 168.233L244.575 176.813L245.503 181.966Z" fill="#A6D406"/>
<path d="M220.315 181.104L219.152 174.442L243.406 169.901L244.559 176.721L245.153 180.218L220.914 184.581L220.315 181.104Z" fill="#7D9F21"/>
<path d="M229.381 134.917L230.055 138.771C227.17 139.645 224.227 140.166 221.221 140.338L220.543 136.465L229.381 134.917Z" fill="#ECE4DA"/>
<path d="M230.433 136.113C226.976 137.234 223.431 137.855 219.8 137.975L219.143 134.223L229.776 132.36L230.433 136.113Z" fill="#A6D406"/>
<path d="M282.818 163.908C282.818 163.908 286.094 169.268 283.276 175.368C280.459 181.469 266.66 190.144 266.66 190.144L240.412 193.078L239.314 188.428C239.314 188.428 247.82 186.27 250.534 185.725C253.247 185.178 259.748 183.422 264.356 182.846C264.355 182.846 276.756 168.168 282.818 163.908Z" fill="#FCC13D"/>
<path d="M239.314 188.428C239.314 188.428 237.714 186.945 236.317 186.518C234.921 186.091 233.455 186.44 232.06 186.491C230.665 186.542 231.092 187.625 232.371 187.911C233.648 188.198 235.029 188.319 234.732 188.727C234.435 189.137 228.734 189.918 227.679 191.044C226.623 192.168 231.596 191.278 231.596 191.278C231.596 191.278 226.92 192.563 226.71 193.457C226.5 194.352 231.405 192.958 231.405 192.958C231.405 192.958 227.843 194.017 228.128 194.782C228.333 195.33 231.234 194.565 232.646 194.154C232.646 194.154 229.164 195.287 229.67 195.741C230.314 196.32 236.831 195.395 240.412 193.077C240.297 191.483 239.753 190.027 239.314 188.428Z" fill="#FBB28F"/>
<path d="M58.828 301.74C90.8758 301.74 116.856 299.789 116.856 297.383C116.856 294.976 90.8758 293.025 58.828 293.025C26.7801 293.025 0.80011 294.976 0.80011 297.383C0.80011 299.789 26.7801 301.74 58.828 301.74Z" fill="#379937"/>
<path d="M111.045 67.2104L115.698 71.6225V109.861H78.4723L73.8186 105.449V67.2104H111.045Z" fill="#E7B874"/>
<path d="M111.045 67.2104H73.8195V105.449H111.045V67.2104Z" fill="#F1D19E"/>
<path d="M96.3092 67.2104H87.7783V85.5942H96.3092V67.2104Z" fill="#F6DBAC"/>
<path d="M63.2899 219.905H68.8768L72.4343 176.913L68.4367 137.479L53.3388 136.064L62.3936 181.016C59.8345 191.404 61.9733 204.697 63.2899 219.905Z" fill="#160F09"/>
<path d="M63.1283 219.569C63.1283 219.569 62.7918 220.039 62.7918 221.011C62.7918 221.982 62.8866 225.334 62.8866 225.334H79.2394C79.2394 225.334 79.2989 222.786 77.2277 221.425C75.1565 220.065 71.9729 221.397 68.9312 219.26C68.9304 219.26 68.1156 220.004 63.1283 219.569Z" fill="#160F09"/>
<path d="M36.1191 219.582C37.1999 207.928 42.2753 184.477 45.5125 179.42L45.5434 135.452L60.2989 138.953L55.8898 179.514L41.7757 219.26C40.0925 220.202 38.1381 220.023 36.1191 219.582Z" fill="#1E160F"/>
<path d="M36.1191 219.582C36.1191 219.582 35.7466 220.077 35.7466 221.049C35.7466 222.02 35.7466 225.334 35.7466 225.334H52.0839C52.0839 225.334 52.1434 222.786 50.0722 221.425C48.001 220.065 44.8175 221.397 41.7757 219.26C41.775 219.26 41.1064 220.017 36.1191 219.582Z" fill="#160F09"/>
<path d="M69.5601 110L69.6762 140.467C54.9648 145.743 44.5089 138.753 44.5089 138.753L49.0539 113.574L43.4274 92.4646L47.234 90.5475L48.0047 90.1578H48.0062L49.6792 89.3151L54.9633 86.6509L65.5823 88.0267L67.0561 88.2172L67.9283 88.3297L69.0472 88.4746C68.5337 91.9388 68.8996 96.156 69.3331 100.431C70.1229 102.14 70.7738 104.041 70.8106 105.735C70.8451 107.242 70.3499 108.407 69.6791 109.289C69.6769 109.291 69.6769 109.291 69.6769 109.291C69.6336 109.347 69.5902 109.401 69.5469 109.456L69.5601 110Z" fill="#EDB23E"/>
<path d="M65.7278 66.014C65.7278 66.014 67.5536 67.7148 67.7747 69.8356C67.9959 71.9571 67.0238 73.5498 67.0238 73.5498L65.7278 66.014Z" fill="#160F09"/>
<path d="M65.0033 68.0104C61.4311 69.901 54.6217 69.4628 54.6217 69.4628C49.3103 70.9055 51.804 82.8292 51.804 82.8292C50.0811 82.5623 48.8908 81.1865 48.0708 79.4878C47.6741 82.5395 47.076 85.4089 46.1723 87.3171C43.2525 93.4933 37.0338 89.9872 37.0338 89.9872C44.6478 90.1592 43.0953 81.949 38.3997 76.078C33.704 70.2091 37.6135 60.5327 42.7992 60.276C47.907 60.0223 48.8034 64.7896 48.8276 64.9308C48.8291 64.9323 48.8291 64.9345 48.8291 64.9345C49.1024 65.5316 49.2001 66.0015 49.2001 66.0015C50.8628 64.0175 59.177 60.4724 62.9571 61.3577C66.6454 62.2188 67.9599 66.4456 65.0033 68.0104Z" fill="#160F09"/>
<path d="M49.2001 66.0007C49.2001 66.0007 46.9555 67.9538 46.2825 71.699C45.8138 71.7909 45.3759 71.8372 44.9666 71.8424C45.1239 70.6724 45.8931 66.3912 48.8284 64.9352C49.1024 65.5316 49.2001 66.0007 49.2001 66.0007Z" fill="white"/>
<path d="M59.8786 83.4308L59.9521 87.4178L59.9859 89.2452C57.8265 91.1071 53.9369 89.0555 53.9369 89.0555L53.2132 82.6836C54.2176 81.8917 56.8751 82.7976 58.5466 83.13C59.3342 83.2874 59.8786 83.4308 59.8786 83.4308Z" fill="#FBB28F"/>
<path d="M59.8786 83.4308L59.9521 87.4178C57.2226 86.9972 54.6981 83.4425 54.6981 83.4425L58.5473 83.13C59.3342 83.2874 59.8786 83.4308 59.8786 83.4308Z" fill="#ED867A"/>
<path d="M64.3303 84.2786C59.6589 86.82 53.7606 83.9602 51.9296 82.9403C51.5637 82.7359 51.3602 82.605 51.3602 82.605C51.3602 82.605 51.1075 81.6468 50.8503 80.2342C50.5763 78.7341 50.2934 76.7199 50.2993 74.8044C50.3066 72.513 50.7247 70.3606 52.0604 69.3922L65.8578 66.8082C65.8578 66.8082 65.9048 66.9766 65.9834 67.2817C66.6256 69.7952 69.3279 81.5608 64.3303 84.2786Z" fill="#FBB28F"/>
<path d="M51.9296 82.9403C51.5637 82.7359 51.3602 82.605 51.3602 82.605C51.3602 82.605 51.1075 81.6468 50.8503 80.2342L51.9855 80.6055C51.9847 80.6055 52.8679 81.9086 51.9296 82.9403Z" fill="#160F09"/>
<path d="M52.477 75.825C52.477 75.825 50.6262 73.7881 49.2868 75.3728C47.81 77.1192 49.566 81.8924 53.0537 81.1769L52.477 75.825Z" fill="#FBB28F"/>
<path d="M65.9834 67.2824C64.6345 67.8906 58.7706 70.3739 54.438 69.8547C54.438 69.8547 54.4872 70.2091 54.5416 70.7614C54.5416 70.7614 54.543 70.7717 54.5445 70.7901C54.5482 70.8107 54.5511 70.8401 54.5555 70.8776C54.6386 71.607 55.0728 75.6074 54.7855 77.8428C54.4688 80.3121 55.0449 82.3057 56.0558 82.3983C56.0558 82.3983 55.2601 82.8072 54.4541 81.3262C53.6467 79.8452 53.0662 76.6067 53.0662 76.6067C52.5299 75.9375 51.6688 74.6043 50.2985 74.7786C50.3044 72.488 50.7232 70.3614 49.8562 69.3936L63.6529 66.8089C63.996 66.8331 63.3788 57.0831 65.9834 67.2824Z" fill="#160F09"/>
<path d="M73.8193 91.9167C71.6878 90.1636 69.0472 88.4753 69.0472 88.4753C67.9598 92.6852 68.901 95.4273 68.901 95.4273C68.901 95.4273 71.3389 98.2282 73.8193 99.2607V91.9167Z" fill="#FCC13D"/>
<path d="M47.7667 92.1792C52.333 94.825 60.9168 100.945 64.9813 103.335C64.9813 103.335 68.8452 102.643 72.9472 101.995C76.925 101.367 88.4021 98.4827 88.4021 98.4827L90.0861 103.086C90.0861 103.086 70.0693 112.271 62.0593 110.967C58.1263 110.328 54.474 106.861 51.4256 105.11C48.1796 103.246 45.2914 100.816 42.8572 97.9709C42.606 97.6775 42.4399 97.4804 42.426 97.4554C40.4562 94.0213 44.3429 90.1953 47.7667 92.1792Z" fill="#FCC13D"/>
<path d="M88.4021 98.4819C88.4021 98.4819 88.793 96.5627 89.5887 95.3376C90.3844 94.1118 91.7319 93.4382 92.834 92.58C93.9361 91.7219 94.3034 92.8264 93.5077 93.8676C92.712 94.9089 91.7319 95.8891 92.2219 96.0119C92.712 96.1347 97.5832 93.069 99.1144 93.2529C100.646 93.4367 96.2629 95.9509 96.2629 95.9509C96.2629 95.9509 100.671 93.9294 101.406 94.4802C102.141 95.0309 97.4877 97.1149 97.4877 97.1149C97.4877 97.1149 100.898 95.6376 101.169 96.4075C101.364 96.959 98.6508 98.2378 97.304 98.8305C97.304 98.8305 100.7 97.4605 100.604 98.1334C100.481 98.9915 94.3196 102.561 90.0876 103.085L88.4021 98.4819Z" fill="#FBB28F"/>
<path d="M56.8545 227.527L39.3107 296.185C39.1572 296.788 39.5201 297.277 40.1233 297.277C40.7258 297.277 41.3393 296.788 41.4936 296.185L59.0373 227.527H56.8545Z" fill="#FFFBF4"/>
<path d="M28.187 227.527L10.6432 296.185C10.4897 296.788 10.8526 297.277 11.4558 297.277C12.0583 297.277 12.6718 296.788 12.8261 296.185L30.3699 227.527H28.187Z" fill="#FFFBF4"/>
<path d="M25.2554 243.378H53.8958C54.4982 243.378 55.1125 242.889 55.266 242.286C55.4203 241.682 55.0566 241.193 54.4541 241.193H25.8138C25.2114 241.193 24.5971 241.682 24.4436 242.286C24.2893 242.889 24.653 243.378 25.2554 243.378Z" fill="#FFFBF4"/>
<path d="M21.7567 257.068H50.397C51.0002 257.068 51.6137 256.58 51.768 255.976C51.9215 255.373 51.5586 254.884 50.9561 254.884H22.3158C21.7126 254.884 21.0991 255.373 20.9455 255.976C20.7905 256.58 21.1542 257.068 21.7567 257.068Z" fill="#FFFBF4"/>
<path d="M18.2587 270.722H46.899C47.5022 270.722 48.1157 270.217 48.2692 269.594C48.4235 268.971 48.0598 268.466 47.4574 268.466H18.817C18.2146 268.466 17.6011 268.972 17.4468 269.594C17.2925 270.217 17.6562 270.722 18.2587 270.722Z" fill="#FFFBF4"/>
<path d="M14.7606 284.45H43.4009C44.0041 284.45 44.6176 283.961 44.7719 283.358C44.9262 282.755 44.5625 282.266 43.9601 282.266H15.319C14.7165 282.266 14.1023 282.755 13.9488 283.358C13.7937 283.961 14.1574 284.45 14.7606 284.45Z" fill="#FFFBF4"/>
<path d="M57.3938 227.527H55.2109L72.7547 296.185C72.909 296.788 73.5225 297.277 74.1249 297.277C74.7281 297.277 75.0911 296.788 74.9375 296.185L57.3938 227.527Z" fill="#FFFBF4"/>
<path d="M103.605 296.185L86.062 227.527H83.8792L101.423 296.185C101.576 296.788 102.19 297.277 102.793 297.277C103.396 297.277 103.759 296.788 103.605 296.185Z" fill="#FFFBF4"/>
<path d="M86.7196 229.687H26.7455C26.3979 229.687 26.1165 229.405 26.1165 229.058V225.965C26.1165 225.617 26.3979 225.335 26.7455 225.335H86.7189C87.0664 225.335 87.3478 225.618 87.3478 225.965V229.058C87.3478 229.405 87.0664 229.687 86.7196 229.687Z" fill="#FFFBF4"/>
<path d="M88.9936 243.378H60.3525C59.7493 243.378 59.1358 242.889 58.9822 242.286C58.828 241.682 59.1916 241.193 59.7941 241.193H88.4344C89.0369 241.193 89.6504 241.682 89.8047 242.286C89.9597 242.889 89.596 243.378 88.9936 243.378Z" fill="#FFFBF4"/>
<path d="M92.4916 257.068H63.8513C63.2481 257.068 62.6346 256.58 62.4803 255.976C62.3267 255.373 62.6897 254.884 63.2921 254.884H91.9325C92.5357 254.884 93.1492 255.373 93.3035 255.976C93.4577 256.58 93.0941 257.068 92.4916 257.068Z" fill="#FFFBF4"/>
<path d="M95.9896 270.722H67.3493C66.7461 270.722 66.1326 270.217 65.9783 269.594C65.8247 268.971 66.1884 268.466 66.7909 268.466H95.4312C96.0344 268.466 96.6479 268.972 96.8022 269.594C96.9565 270.217 96.5928 270.722 95.9896 270.722Z" fill="#FFFBF4"/>
<path d="M99.4884 284.45H70.8481C70.2448 284.45 69.6313 283.961 69.4771 283.358C69.3235 282.755 69.6865 282.266 70.2889 282.266H98.9292C99.5325 282.266 100.146 282.755 100.3 283.358C100.455 283.961 100.091 284.45 99.4884 284.45Z" fill="#FFFBF4"/>
</g>
<defs>
<clipPath id="clip0">
<rect width="318" height="302" fill="white"/>
</clipPath>
</defs>
</svg>
