<svg width="360" height="453" viewBox="0 0 360 453" fill="none" xmlns="http://www.w3.org/2000/svg">
<g opacity="0.1">
<path d="M184.391 225.8L184.392 225.801L184.391 225.798V225.8Z" fill="#FFE85F"/>
<path d="M184.391 225.806L184.392 225.803L184.391 225.804V225.806Z" fill="#FFE85F"/>
<path d="M184.391 225.808L184.392 225.803L184.391 225.807V225.808Z" fill="#FFE85F"/>
<path d="M222.448 -8L184.397 225.798L184.404 225.789L263.636 -8H222.448Z" fill="#FFE85F"/>
<path d="M184.391 225.803H184.393L184.391 225.801V225.803Z" fill="#FFE85F"/>
<path d="M184.391 225.804L184.392 225.803L184.391 225.804Z" fill="#FFE85F"/>
<path d="M184.399 225.796H184.397V225.799H184.399V225.796Z" fill="#FFE85F"/>
<path d="M184.386 225.796L184.384 225.789L-6.8988 -8H-50V34.382L184.386 225.796Z" fill="#FFE85F"/>
<path d="M184.398 225.808H184.396V225.81H184.398V225.808Z" fill="#FFE85F"/>
<path d="M184.397 225.803H184.396V225.804H184.397V225.803Z" fill="#FFE85F"/>
<path d="M184.4 225.81L370.259 453H411V410.862L184.4 225.81Z" fill="#FFE85F"/>
<path d="M184.391 225.796L184.393 225.803V-8H146.34L184.391 225.796Z" fill="#FFE85F"/>
<path d="M184.395 225.815L184.393 225.819V453H221.372L184.395 225.815Z" fill="#FFE85F"/>
<path d="M184.402 225.805L184.4 225.808L411 340.525V280.897L184.402 225.805Z" fill="#FFE85F"/>
<path d="M184.397 225.812V225.815L261.378 453H308.589L184.397 225.812Z" fill="#FFE85F"/>
<path d="M184.423 225.766L375.687 -8H312.221L184.423 225.766Z" fill="#FFE85F"/>
<path d="M184.412 225.789L184.407 225.796L411 111.079V40.7415L184.412 225.789Z" fill="#FFE85F"/>
<path d="M184.405 225.801L184.402 225.803H411V170.73L184.405 225.801Z" fill="#FFE85F"/>
<path d="M184.395 225.812L184.393 225.817L184.395 225.814V225.812Z" fill="#FFE85F"/>
<path d="M184.389 225.801V225.798L-50 107.135V168.837L184.389 225.801Z" fill="#FFE85F"/>
<path d="M184.391 225.815V225.812L107.411 453H147.414L184.391 225.815Z" fill="#FFE85F"/>
<path d="M184.391 225.805L184.389 225.803H-50V282.79L184.391 225.805Z" fill="#FFE85F"/>
<path d="M184.379 225.773L105.152 -8H56.5693L184.379 225.773Z" fill="#FFE85F"/>
<path d="M184.391 225.81V225.808L-1.4707 453H60.1996L184.391 225.81Z" fill="#FFE85F"/>
<path d="M184.391 225.808V225.805L-50 344.469V417.224L184.391 225.808Z" fill="#FFE85F"/>
</g>
</svg>
