<svg width="30" height="32" viewBox="0 0 30 32" fill="none" xmlns="http://www.w3.org/2000/svg">
<path d="M5.83722 0.0877686C5.83722 0.138727 5.83643 0.189686 5.83643 0.240803C5.83643 11.0531 9.939 19.8185 14.9996 19.8185C20.0604 19.8185 24.1628 11.0533 24.1628 0.240803C24.1628 0.189686 24.1622 0.138727 24.1619 0.0877686L5.83722 0.0877686Z" fill="#BCBCBC"/>
<path d="M8.5415 27.4831H21.4574C18.4631 26.5405 16.3033 23.8654 16.3033 20.7118C16.3033 20.4749 16.3156 20.2408 16.3396 20.0098C15.9046 19.949 15.4568 19.9174 14.9996 19.9174C14.5424 19.9174 14.0944 19.949 13.6598 20.0098C13.6834 20.2408 13.6961 20.4749 13.6961 20.7118C13.696 23.8654 11.5362 26.5406 8.5415 27.4831Z" fill="#BCBCBC"/>
<path d="M23.2085 27.2361H6.79102V28.1259H23.2085V27.2361Z" fill="#BCBCBC"/>
<path d="M18.2636 16.9506H11.7363V20.8074H18.2636V16.9506Z" fill="#BCBCBC"/>
<path d="M12.1652 17.7448C9.79142 17.0629 6.36957 15.2313 3.87736 12.4274C1.39737 9.63756 1.10193 5.94647 2.09174 3.74207C2.4594 2.92324 3.35967 1.54957 5.25785 1.54957C5.7387 1.54957 6.25892 1.61038 6.80423 1.72388V0.156544C6.26083 0.0562145 5.74188 0.00350952 5.25785 0.00350952C3.23553 0.00350952 1.56723 1.13524 0.681088 3.10882C-0.732897 6.25778 0.106096 10.5124 2.72134 13.455C5.38183 16.4481 9.30422 18.6393 12.1651 19.3462V17.7448H12.1652Z" fill="#BCBCBC"/>
<path d="M17.8345 17.7415C20.2083 17.0596 23.6301 15.228 26.1223 12.4241C28.6022 9.63427 28.8974 5.94317 27.9076 3.73877C27.54 2.91994 26.6397 1.54628 24.7415 1.54628C24.2607 1.54628 23.7404 1.60708 23.1951 1.72059V0.153249C23.7385 0.0529186 24.2575 0.000213623 24.7415 0.000213623C26.7638 0.000213623 28.432 1.13194 29.3183 3.10552C30.7326 6.25464 29.8936 10.5093 27.2779 13.4519C24.6175 16.445 20.6953 18.6362 17.8345 19.3431V17.7415Z" fill="#F9BC43"/>
<path d="M29.3184 3.10528C28.4321 1.1317 26.764 -3.05176e-05 24.7417 -3.05176e-05C24.3769 -3.05176e-05 23.9921 0.0299732 23.5922 0.0877582L15.0386 0.0877582L15.0386 28.1258H23.2086V27.236H20.7867C18.1753 26.1397 16.3454 23.6788 16.3054 20.8073H18.2634V19.2257C21.0779 18.4167 24.7479 16.2985 27.278 13.4516C29.8938 10.5091 30.7327 6.2544 29.3184 3.10528ZM26.1225 12.4241C24.2277 14.5557 21.7967 16.1234 19.6965 17.0534C22.2033 13.8496 23.9333 8.16003 24.1411 1.57794C24.3466 1.55873 24.548 1.54635 24.7415 1.54635C26.6397 1.54635 27.54 2.91986 27.9076 3.73885C28.8978 5.94309 28.6025 9.63418 26.1225 12.4241Z" fill="#939393"/>
<path d="M25.3346 28.027H4.66455V31.6863H25.3346V28.027Z" fill="#7A6E62"/>
<path d="M25.3353 28.027H15.0391V31.6864H25.3353V28.027Z" fill="#66594E"/>
<path d="M21.8556 28.9169H8.14453V30.5665H21.8556V28.9169Z" fill="#BCBCBC"/>
<path d="M21.8553 28.9169H15.0386V30.5665H21.8553V28.9169Z" fill="#939393"/>
<path d="M19.6989 12.5473H12.4453V11.4886C12.5847 11.3287 12.7784 11.1497 13.0259 10.9511C13.2737 10.7526 13.5677 10.5374 13.9085 10.3051C14.1147 10.1661 14.3624 10.014 14.6518 9.84887C14.9405 9.68393 15.2684 9.50343 15.6348 9.30754C16.0423 9.091 16.3558 8.90018 16.5754 8.73524C16.7946 8.5703 16.9946 8.36663 17.1753 8.12421C17.2939 7.96435 17.3893 7.76465 17.4618 7.52493C17.5339 7.28522 17.5701 6.94343 17.5701 6.50004C17.5701 5.85552 17.397 5.38245 17.0514 5.08082C16.7055 4.7792 16.2618 4.62838 15.7198 4.62838C15.3844 4.62838 15.0669 4.69411 14.7677 4.82571C14.4684 4.95731 14.2438 5.13924 14.0942 5.37149C14.1303 5.53675 14.1755 5.73281 14.2298 5.95982C14.2841 6.18699 14.3111 6.40876 14.3111 6.62546C14.3111 6.82167 14.2298 6.99582 14.0674 7.14806C13.9047 7.3003 13.6634 7.3765 13.3434 7.3765C13.0854 7.3765 12.8866 7.28744 12.7474 7.10933C12.608 6.93121 12.5385 6.69261 12.5385 6.39321C12.5385 6.1146 12.6157 5.83457 12.7708 5.55326C12.9255 5.27211 13.1473 5.01272 13.4364 4.77523C13.7201 4.54298 14.0711 4.3547 14.4891 4.21008C14.9072 4.06561 15.3588 3.99323 15.8438 3.99323C16.9017 3.99323 17.7415 4.22913 18.3635 4.70093C18.9855 5.17274 19.2965 5.80282 19.2965 6.59164C19.2965 6.96804 19.2409 7.31078 19.13 7.62018C19.019 7.92959 18.8398 8.20264 18.5919 8.43981C18.3181 8.7027 17.9984 8.92828 17.632 9.11656C17.2654 9.30484 16.7055 9.5663 15.9521 9.90142C15.5032 10.1026 15.0852 10.3126 14.6981 10.5317C14.3111 10.7507 13.9936 10.9635 13.746 11.1697H19.6989V12.5473Z" fill="#939393"/>
<path d="M19.6989 12.7061H12.4453V11.6474C12.5847 11.4875 12.7784 11.3084 13.0259 11.1098C13.2737 10.9114 13.5677 10.6961 13.9085 10.4639C14.1147 10.3248 14.3624 10.1727 14.6518 10.0076C14.9405 9.84269 15.2684 9.66219 15.6348 9.46629C16.0423 9.24975 16.3558 9.05894 16.5754 8.894C16.7946 8.72905 16.9946 8.52538 17.1753 8.28297C17.2939 8.12311 17.3893 7.9234 17.4618 7.68369C17.5339 7.44397 17.5701 7.10219 17.5701 6.6588C17.5701 6.01427 17.397 5.5412 17.0514 5.23957C16.7055 4.93795 16.2618 4.78714 15.7198 4.78714C15.3844 4.78714 15.0669 4.85286 14.7677 4.98446C14.4684 5.11607 14.2438 5.29799 14.0942 5.53024C14.1303 5.6955 14.1755 5.89156 14.2298 6.11857C14.2841 6.34574 14.3111 6.56752 14.3111 6.78421C14.3111 6.98042 14.2298 7.15457 14.0674 7.30681C13.9047 7.45906 13.6634 7.53526 13.3434 7.53526C13.0854 7.53526 12.8866 7.4462 12.7474 7.26808C12.608 7.08996 12.5385 6.85136 12.5385 6.55196C12.5385 6.27335 12.6157 5.99332 12.7708 5.71201C12.9255 5.43087 13.1473 5.17147 13.4364 4.93398C13.7201 4.70173 14.0711 4.51345 14.4891 4.36883C14.9072 4.22437 15.3588 4.15198 15.8438 4.15198C16.9017 4.15198 17.7415 4.38788 18.3635 4.85968C18.9855 5.33149 19.2965 5.96157 19.2965 6.7504C19.2965 7.12679 19.2409 7.46953 19.13 7.77894C19.019 8.08834 18.8398 8.36139 18.5919 8.59856C18.3181 8.86145 17.9984 9.08704 17.632 9.27531C17.2654 9.46359 16.7055 9.72505 15.9521 10.0602C15.5032 10.2613 15.0852 10.4713 14.6981 10.6904C14.3111 10.9095 13.9936 11.1222 13.746 11.3284H19.6989V12.7061Z" fill="white"/>
</svg>
