<svg width="31" height="32" viewBox="0 0 31 32" fill="none" xmlns="http://www.w3.org/2000/svg">
<path d="M5.8382 0.302117C5.83849 0.353075 5.83831 0.404038 5.83876 0.455154C5.93467 11.2671 10.1147 19.9958 15.1753 19.9509C20.2359 19.906 24.2605 11.1047 24.1646 0.292598C24.1641 0.241482 24.163 0.190531 24.1623 0.139577L5.8382 0.302117Z" fill="#F9BC43"/>
<path d="M8.78537 27.6725L21.7008 27.558C18.6982 26.6419 16.5148 23.9861 16.4868 20.8326C16.4847 20.5958 16.495 20.3615 16.5169 20.1303C16.0814 20.0734 15.6333 20.0457 15.1762 20.0498C14.719 20.0539 14.2713 20.0894 13.837 20.1541C13.8629 20.3848 13.8775 20.6189 13.8796 20.8557C13.9074 24.0092 11.7714 26.7035 8.78537 27.6725Z" fill="#F9BC43"/>
<path d="M23.4496 27.2954L7.03271 27.4411L7.04061 28.3308L23.4575 28.1852L23.4496 27.2954Z" fill="#F9BC43"/>
<path d="M18.4133 17.0541L11.8862 17.112L11.9204 20.9687L18.4475 20.9108L18.4133 17.0541Z" fill="#F9BC43"/>
<path d="M12.3222 17.8999C9.94247 17.2391 6.50449 15.4379 3.98748 12.6562C1.48283 9.88847 1.15466 6.20011 2.12488 3.987C2.48527 3.16494 3.37333 1.78333 5.2716 1.7665C5.75244 1.76223 6.27302 1.81842 6.81948 1.92708L6.80557 0.359795C6.2613 0.264288 5.7419 0.216188 5.25789 0.220481C3.23548 0.238421 1.57743 1.38491 0.708819 3.36628C-0.677506 6.52769 0.199199 10.7748 2.84078 13.6941C5.52757 16.6634 9.46927 18.8198 12.3364 19.5013L12.3222 17.8999Z" fill="#F9BC43"/>
<path d="M17.9913 17.8487C20.359 17.1459 23.7645 15.2839 26.2318 12.4581C28.6868 9.64629 28.9493 5.9527 27.94 3.75715C27.5651 2.94161 26.6526 1.57597 24.7545 1.59281C24.2737 1.59708 23.754 1.66249 23.2097 1.78083L23.1958 0.213543C23.7383 0.108397 24.2568 0.0510903 24.7408 0.046797C26.7631 0.028859 28.4412 1.14575 29.345 3.11141C30.7872 6.24788 29.9859 10.5098 27.3964 13.4755C24.7627 16.4921 20.86 18.718 18.0056 19.4503L17.9913 17.8487Z" fill="#F9BC43"/>
<path d="M29.345 3.11126C28.4413 1.14561 26.7631 0.028716 24.7409 0.046654C24.3761 0.0498898 23.9916 0.0833059 23.5922 0.144636L15.0389 0.220507L15.2876 28.2577L23.4574 28.1852L23.4495 27.2954L21.0277 27.3169C18.4066 26.2438 16.5549 23.7992 16.4894 20.9282L18.4474 20.9108L18.4334 19.3292C21.2406 18.4953 24.8916 16.3446 27.3965 13.4754C29.986 10.5097 30.7872 6.24774 29.345 3.11126ZM26.2318 12.4581C24.356 14.6065 21.939 16.1957 19.8471 17.1442C22.3254 13.9184 24.0049 8.21362 24.1543 1.6299C24.3596 1.60887 24.5609 1.5947 24.7544 1.59299C26.6525 1.57615 27.565 2.94162 27.9399 3.75733C28.9495 5.95271 28.687 9.64631 26.2318 12.4581Z" fill="#E89C18"/>
<path d="M25.5824 28.0674L4.91309 28.2508L4.94554 31.91L25.6149 31.7267L25.5824 28.0674Z" fill="#7A6E62"/>
<path d="M25.5825 28.0675L15.2866 28.1588L15.3191 31.818L25.6149 31.7267L25.5825 28.0675Z" fill="#66594E"/>
<path d="M22.111 28.9882L8.40039 29.1099L8.41502 30.7594L22.1256 30.6378L22.111 28.9882Z" fill="#F9BC43"/>
<path d="M22.1114 28.9882L15.2949 29.0487L15.3096 30.6982L22.1261 30.6378L22.1114 28.9882Z" fill="#E89C18"/>
<path d="M17.4911 12.6588L12.2737 12.7051L12.2688 12.1555C12.4235 12.144 12.6646 12.1198 12.9921 12.0834C13.3194 12.047 13.5449 12.0101 13.6685 11.9728C13.8279 11.9199 13.9499 11.8349 14.0339 11.7181C14.118 11.6013 14.1592 11.4266 14.1571 11.1943L14.1089 5.76019L12.1814 5.77729L12.1756 5.12707L12.6014 5.12329C13.1588 5.11835 13.6571 5.01073 14.0966 4.80029C14.5359 4.59001 14.8501 4.36528 15.0388 4.12611L15.6813 4.12041C15.6689 4.45613 15.6568 4.84837 15.6454 5.29743C15.634 5.74666 15.6297 6.14915 15.6329 6.50521L15.6736 11.0956C15.6752 11.2763 15.7165 11.4372 15.7979 11.5784C15.879 11.7198 15.9949 11.8232 16.1452 11.8889C16.2798 11.9445 16.4995 11.9942 16.8046 12.038C17.1094 12.0816 17.3367 12.1057 17.4866 12.1093L17.4914 12.6588L17.4911 12.6588Z" fill="#E89C18"/>
<path d="M17.9687 12.8133L12.7512 12.8596L12.7463 12.31C12.901 12.2985 13.1421 12.2743 13.4696 12.2379C13.797 12.2015 14.0224 12.1646 14.1461 12.1273C14.3055 12.0744 14.4274 11.9894 14.5115 11.8726C14.5955 11.7558 14.6367 11.5811 14.6346 11.3488L14.5864 5.9147L12.659 5.9318L12.6532 5.28158L13.0789 5.2778C13.6363 5.27286 14.1346 5.16524 14.5741 4.9548C15.0134 4.74452 15.3277 4.51979 15.5164 4.28062L16.1588 4.27492C16.1464 4.61064 16.1343 5.00288 16.1229 5.45195C16.1115 5.90117 16.1073 6.30366 16.1104 6.65972L16.1512 11.2501C16.1528 11.4308 16.194 11.5917 16.2755 11.7329C16.3566 11.8743 16.4724 11.9777 16.6227 12.0434C16.7574 12.099 16.977 12.1487 17.2821 12.1925C17.587 12.2361 17.8142 12.2602 17.9641 12.2638L17.969 12.8133L17.9687 12.8133Z" fill="white"/>
</svg>
