<svg width="100" height="100" viewBox="0 0 100 100" fill="none" xmlns="http://www.w3.org/2000/svg">
<path d="M17.1992 71.152C16.1788 72.9848 15.3664 75.7424 15.3664 77.4796C15.3664 77.8832 15.3664 78.396 15.4664 79.108L2.7124 57.1736C2.304 56.4616 2 55.4408 2 54.5208C2 53.5996 2.304 52.48 2.7124 51.7672L8.8352 41.054L2 37.18L24.2424 36.7684L35.0552 56.2532L28.12 52.2748L17.1992 71.152ZM26.9956 9.3276C28.9328 5.9576 32.098 4.1212 35.972 4.1212C40.158 4.1212 43.4236 6.0624 45.7684 10.036L49.2384 15.8508L37.1964 36.6684L17.7112 25.3424L26.9956 9.3276ZM28.42 88.8008C22.6052 88.8008 17.8112 84.006 17.8112 78.1916C17.8112 76.5584 18.5276 73.8012 19.548 72.0684L22.8092 66.2536H46.9928V88.8008H28.42ZM47.8096 8.7112C46.2808 6.062 44.24 4.2212 41.7908 3.2H66.8864C69.1312 3.2 70.864 4.1212 71.8888 5.8576L78.112 16.4668L84.8436 12.4848L74.0256 31.8736L51.8916 31.562L58.7264 27.688L47.8096 8.7112ZM86.4804 66.4584C89.5376 66.4584 92.0908 65.642 94.2316 64.0128L81.578 86.0468C80.5572 87.7796 78.7248 88.8004 76.5832 88.8004H64.6416V96.656L53.2164 77.5792L64.6416 58.4972V66.4576L86.4804 66.4584ZM96.2688 48.0932C97.1892 49.726 97.7016 51.4588 97.7016 53.296C97.7016 56.97 95.3524 60.8468 92.0912 62.6796C90.5584 63.5008 88.4132 64.0124 86.2764 64.0124H79.5368L67.5028 43.1944L86.9884 32.0732L96.2688 48.0932Z" fill="black"/>
</svg>
