<svg width="100" height="100" viewBox="0 0 100 100" fill="none" xmlns="http://www.w3.org/2000/svg">
<path d="M57.7192 77.0224H42.346C41.284 77.0224 40.4244 77.8848 40.4244 78.944C40.4244 80.0024 41.2836 80.866 42.346 80.866H57.7192C58.7776 80.866 59.6408 80.0024 59.6408 78.944C59.6408 77.8848 58.7776 77.0224 57.7192 77.0224ZM57.7192 84.7084H42.346C41.284 84.7084 40.4244 85.572 40.4244 86.6304C40.4244 87.6884 41.2836 88.5516 42.346 88.5516H57.7192C58.7776 88.5516 59.6408 87.6884 59.6408 86.6304C59.6408 85.5724 58.7776 84.7084 57.7192 84.7084ZM58.6804 92.3952H41.3864L45.9532 95.4012C46.5428 95.9308 47.4096 96.2388 48.3176 96.2388H51.7564C52.6524 96.2388 53.5272 95.9308 54.116 95.4012L58.6804 92.3952ZM73.0924 39.3628C73.0924 53.0768 60.74 62.3544 60.74 73.1796H39.3252C39.3252 62.3544 26.9736 53.0768 26.9736 39.3628C26.9736 25.0536 38.4956 17.1792 50.0212 17.1792C61.5552 17.1792 73.0924 25.0608 73.0924 39.3628ZM88.4652 36.7056V41.9784H78.7108C78.7896 41.1228 78.8572 40.258 78.8572 39.3628C78.8572 38.4508 78.7896 37.578 78.722 36.7092H88.4648V36.7056H88.4652ZM47.5444 11.5212V4H52.81V11.5476C51.8832 11.4632 50.9524 11.4144 50.0212 11.4144C49.196 11.4144 48.3704 11.452 47.5444 11.5212ZM68.7612 17.4552L74.7964 10.7556L78.7108 14.2832L72.5524 21.1144C71.5912 19.974 70.27 18.5324 68.7612 17.4552ZM27.4916 21.1148L21.3316 14.2836L25.2468 10.756L31.2816 17.4556C29.7772 18.5324 28.452 19.974 27.4916 21.1148ZM21.3552 41.9784H11.6V36.7056H21.3436C21.272 37.5744 21.2088 38.4508 21.2088 39.3628C21.2088 40.258 21.2792 41.1228 21.3552 41.9784Z" fill="black"/>
</svg>
