<svg width="70" height="70" viewBox="0 0 70 70" fill="none" xmlns="http://www.w3.org/2000/svg">
<rect x="0.5" y="0.5" width="69" height="69" rx="34.5" fill="#937C9D" stroke="#C7C7C7"/>
<path d="M22.2263 51.377C22.2263 51.9787 22.7277 52.4666 23.3463 52.4666H46.9196C47.5381 52.4666 48.0396 51.9787 48.0396 51.377V26.6539H22.2263V51.377ZM39.6863 32.5323C39.6863 31.8034 40.2772 31.2123 41.0063 31.2123C41.7354 31.2123 42.3263 31.8034 42.3263 32.5323V46.5323C42.3263 47.2613 41.7354 47.8523 41.0063 47.8523C40.2772 47.8523 39.6863 47.2613 39.6863 46.5323V32.5323V32.5323ZM33.733 32.5323C33.733 31.8034 34.3239 31.2123 35.053 31.2123C35.7821 31.2123 36.373 31.8034 36.373 32.5323V46.5323C36.373 47.2613 35.7821 47.8523 35.053 47.8523C34.3239 47.8523 33.733 47.2613 33.733 46.5323V32.5323ZM27.7797 32.5323C27.7797 31.8034 28.3706 31.2123 29.0997 31.2123C29.8288 31.2123 30.4197 31.8034 30.4197 32.5323V46.5323C30.4197 47.2613 29.8288 47.8523 29.0997 47.8523C28.3706 47.8523 27.7797 47.2613 27.7797 46.5323V32.5323V32.5323ZM47.906 20.8666H41.2664V19.96C41.2664 18.6346 40.1919 17.56 38.8664 17.56H31.5064C30.181 17.56 29.1064 18.6346 29.1064 19.96V20.8666H22.2C20.8746 20.8666 19.8 21.9411 19.8 23.2666V24.92H50.306V23.2666C50.306 21.9411 49.2314 20.8666 47.906 20.8666ZM30.7864 20.8666C30.7864 19.82 31.2348 18.9523 32.2812 18.9523H38.0917C39.1381 18.9523 39.5064 19.8202 39.5064 20.8666H30.7864Z" fill="white"/>
</svg>
