<svg width="100" height="100" viewBox="0 0 100 100" fill="none" xmlns="http://www.w3.org/2000/svg">
<path d="M18.0656 90.9424C18.0656 92.4468 19.3192 93.6664 20.8656 93.6664H79.7988C81.3452 93.6664 82.5988 92.4468 82.5988 90.9424V29.1348H18.0656V90.9424ZM61.7156 43.8308C61.7156 42.0084 63.1928 40.5308 65.0156 40.5308C66.8384 40.5308 68.3156 42.0084 68.3156 43.8308V78.8308C68.3156 80.6532 66.8384 82.1308 65.0156 82.1308C63.1928 82.1308 61.7156 80.6532 61.7156 78.8308V43.8308ZM46.8324 43.8308C46.8324 42.0084 48.3096 40.5308 50.1324 40.5308C51.9552 40.5308 53.4324 42.0084 53.4324 43.8308V78.8308C53.4324 80.6532 51.9552 82.1308 50.1324 82.1308C48.3096 82.1308 46.8324 80.6532 46.8324 78.8308V43.8308ZM31.9492 43.8308C31.9492 42.0084 33.4264 40.5308 35.2492 40.5308C37.072 40.5308 38.5492 42.0084 38.5492 43.8308V78.8308C38.5492 80.6532 37.072 82.1308 35.2492 82.1308C33.4264 82.1308 31.9492 80.6532 31.9492 78.8308V43.8308ZM82.2648 14.6664H65.666V12.4C65.666 9.08639 62.9796 6.39999 59.666 6.39999H41.266C37.9524 6.39999 35.266 9.08639 35.266 12.4V14.6664H18C14.6864 14.6664 12 17.3528 12 20.6664V24.8H88.2648V20.6664C88.2648 17.3528 85.5784 14.6664 82.2648 14.6664ZM39.466 14.6664C39.466 12.05 40.5868 9.88079 43.2028 9.88079H57.7292C60.3452 9.88079 61.266 12.0504 61.266 14.6664H39.466Z" fill="black"/>
</svg>
