<svg width="100" height="100" viewBox="0 0 100 100" fill="none" xmlns="http://www.w3.org/2000/svg">
<path d="M29.0501 77.6848C28.7677 77.708 28.6141 77.7164 28.6141 77.7164C28.6141 77.7164 28.9205 77.2768 29.4585 76.4408C29.3045 76.888 29.1685 77.3044 29.0501 77.6848ZM22.8645 76.5184C23.8329 78.02 22.3737 81.2744 20.6653 84.1628C21.7793 83.6472 23.1077 83.0828 24.5961 82.538C24.8661 82.072 25.1377 81.5888 25.4085 81.0896C30.6533 71.4264 37.2573 55.8664 40.6169 46.6332C47.2209 28.4876 51.9005 11.268 49.9921 23.0916C48.2921 33.6224 45.5065 42.4252 42.5237 50.114C40.5801 55.1244 38.5973 59.5424 36.7597 63.2972C38.5277 61.2636 40.6293 59.4092 43.1121 57.994C44.2321 57.3552 45.5845 56.9328 47.1117 56.6908C50.6645 56.1276 55.4021 56.6112 60.4901 57.6436C64.1857 40.2684 54.7665 3.20001 54.7665 3.20001C54.7665 3.20001 47.1553 8.81921 41.3905 12.7908C31.3949 19.6768 14.5133 33.7084 12.2137 45.2212C8.6069 63.278 22.0417 75.2424 22.8645 76.5184ZM47.0145 59.512C45.6413 59.7296 44.4257 60.1092 43.4185 60.6836C33.2061 66.5052 30.1693 80.5888 30.1693 80.5888C30.1693 80.5888 38.6573 76.476 52.3021 73.5524C58.3609 72.254 65.2233 71.234 73.2381 71.2256C82.2369 71.2164 69.1985 73.6884 54.9505 76.4296C47.7009 77.824 36.3505 80.4964 27.2853 82.5652C22.7917 83.5904 19.9561 85.9096 19.9561 85.9096L19.9569 86.7124C19.4653 86.9368 19.0101 87.154 18.6133 87.3488C17.6773 88.7016 16.9689 89.6132 16.9689 89.6132L19.4697 90.0172C19.4697 90.0172 20.4577 88.8556 21.8505 86.8544C24.4529 85.6104 28.9741 83.7396 30.3741 84.9972C31.2229 85.7588 38.5013 97.1492 52.3265 96.6216C61.1417 96.2848 73.5597 85.4296 79.8573 78.8328C83.4893 75.028 88.5637 70.0504 88.5637 70.0504C88.5637 70.0504 59.5689 57.5228 47.0145 59.512Z" fill="black"/>
</svg>
