<svg width="70" height="70" viewBox="0 0 70 70" fill="none" xmlns="http://www.w3.org/2000/svg">
<rect x="0.5" y="0.5" width="69" height="69" rx="34.5" fill="#94B64C" stroke="#C7C7C7"/>
<path d="M26.62 46.0739C26.5071 46.0832 26.4456 46.0866 26.4456 46.0866C26.4456 46.0866 26.5682 45.9107 26.7834 45.5763C26.7218 45.7552 26.6674 45.9218 26.62 46.0739ZM24.1458 45.6074C24.5332 46.208 23.9495 47.5098 23.2661 48.6651C23.7117 48.4589 24.2431 48.2331 24.8384 48.0152C24.9464 47.8288 25.0551 47.6355 25.1634 47.4358C27.2613 43.5706 29.9029 37.3466 31.2468 33.6533C33.8884 26.395 35.7602 19.5072 34.9968 24.2366C34.3168 28.449 33.2026 31.9701 32.0095 35.0456C31.232 37.0498 30.4389 38.817 29.7039 40.3189C30.4111 39.5054 31.2517 38.7637 32.2448 38.1976C32.6928 37.9421 33.2338 37.7731 33.8447 37.6763C35.2658 37.451 37.1608 37.6445 39.196 38.0574C40.6743 31.1074 36.9066 16.28 36.9066 16.28C36.9066 16.28 33.8621 18.5277 31.5562 20.1163C27.558 22.8707 20.8053 28.4834 19.8855 33.0885C18.4428 40.3112 23.8167 45.097 24.1458 45.6074ZM33.8058 38.8048C33.2565 38.8918 32.7703 39.0437 32.3674 39.2734C28.2824 41.6021 27.0677 47.2355 27.0677 47.2355C27.0677 47.2355 30.4629 45.5904 35.9208 44.421C38.3444 43.9016 41.0893 43.4936 44.2952 43.4902C47.8948 43.4866 42.6794 44.4754 36.9802 45.5718C34.0804 46.1296 29.5402 47.1986 25.9141 48.0261C24.1167 48.4362 22.9824 49.3638 22.9824 49.3638L22.9828 49.685C22.7861 49.7747 22.604 49.8616 22.4453 49.9395C22.0709 50.4806 21.7876 50.8453 21.7876 50.8453L22.7879 51.0069C22.7879 51.0069 23.1831 50.5422 23.7402 49.7418C24.7812 49.2442 26.5896 48.4958 27.1496 48.9989C27.4892 49.3035 30.4005 53.8597 35.9306 53.6486C39.4567 53.5139 44.4239 49.1718 46.9429 46.5331C48.3957 45.0112 50.4255 43.0202 50.4255 43.0202C50.4255 43.0202 38.8276 38.0091 33.8058 38.8048Z" fill="white"/>
</svg>
