<svg width="70" height="70" viewBox="0 0 70 70" fill="none" xmlns="http://www.w3.org/2000/svg">
<rect x="0.5" y="0.5" width="69" height="69" rx="34.5" fill="#6B89B6" stroke="#C7C7C7"/>
<path d="M21.8797 43.4608C21.4716 44.1939 21.1466 45.297 21.1466 45.9918C21.1466 46.1533 21.1466 46.3584 21.1866 46.6432L16.085 37.8694C15.9216 37.5846 15.8 37.1763 15.8 36.8083C15.8 36.4398 15.9216 35.992 16.085 35.7069L18.5341 31.4216L15.8 29.872L24.697 29.7074L29.0221 37.5013L26.248 35.9099L21.8797 43.4608ZM25.7983 18.731C26.5732 17.383 27.8392 16.6485 29.3888 16.6485C31.0632 16.6485 32.3695 17.425 33.3074 19.0144L34.6954 21.3403L29.8786 29.6674L22.0845 25.137L25.7983 18.731ZM26.368 50.5203C24.0421 50.5203 22.1245 48.6024 22.1245 46.2766C22.1245 45.6234 22.4111 44.5205 22.8192 43.8274L24.1237 41.5014H33.7972V50.5203H26.368ZM34.1239 18.4845C33.5124 17.4248 32.696 16.6885 31.7164 16.28H41.7546C42.6525 16.28 43.3456 16.6485 43.7556 17.343L46.2448 21.5867L48.9375 19.9939L44.6103 27.7494L35.7567 27.6248L38.4906 26.0752L34.1239 18.4845ZM49.5922 41.5834C50.8151 41.5834 51.8364 41.2568 52.6927 40.6051L47.6312 49.4187C47.2229 50.1118 46.49 50.5202 45.6333 50.5202H40.8567V53.6624L36.2866 46.0317L40.8567 38.3989V41.583L49.5922 41.5834ZM53.5076 34.2373C53.8757 34.8904 54.0807 35.5835 54.0807 36.3184C54.0807 37.788 53.141 39.3387 51.8365 40.0718C51.2234 40.4003 50.3653 40.605 49.5106 40.605H46.8148L42.0012 32.2778L49.7954 27.8293L53.5076 34.2373Z" fill="white"/>
</svg>
