<svg width="100" height="100" viewBox="0 0 100 100" fill="none" xmlns="http://www.w3.org/2000/svg">
<path d="M65.4 13.2H61V9.60001C61 6.28641 58.3136 3.60001 55 3.60001H44.8C41.4864 3.60001 38.8 6.28641 38.8 9.60001V13.2H34.4C31.0864 13.2 28.4 15.8864 28.4 19.2V90.8C28.4 94.1132 31.0864 96.8 34.4 96.8H65.4C68.7136 96.8 71.4 94.1132 71.4 90.8V19.2C71.4 15.8864 68.7136 13.2 65.4 13.2ZM39.0252 79.9032L48.964 54.9844H33.5512L48.5316 26.8964H63.2232L51.1244 48.7192H66.2488L39.0252 79.9032Z" fill="black"/>
</svg>
