<svg width="70" height="70" viewBox="0 0 70 70" fill="none" xmlns="http://www.w3.org/2000/svg">
<rect x="0.5" y="0.5" width="69" height="69" rx="34.5" fill="#48A99D" stroke="#C7C7C7"/>
<path d="M54.52 37.32H48.92V33.56H52.08V28.52H48.92V24.52H52.08V19.48H17.92V24.52H20.84V28.52H17.92V33.56H20.84V37.32H15.48V41.9067H19H19.24L17.88 50.6267H19.72L23.8 41.9067H45.96L50.04 50.6267H51.88L50.52 41.9067H54.52V37.32ZM22.16 21.16C22.5355 21.16 22.84 21.4645 22.84 21.84C22.84 22.2155 22.5355 22.52 22.16 22.52C21.7845 22.52 21.48 22.2155 21.48 21.84C21.48 21.4645 21.7845 21.16 22.16 21.16ZM22.299 32.04C21.9235 32.04 21.619 31.7355 21.619 31.36C21.619 30.9845 21.9235 30.68 22.299 30.68C22.6745 30.68 22.979 30.9845 22.979 31.36C22.979 31.7355 22.6745 32.04 22.299 32.04ZM45.96 37.32H23.8V33.56H45.96V37.32ZM45.96 28.52H23.8V24.52H45.96V28.52ZM47.4019 21.16C47.7774 21.16 48.0819 21.4645 48.0819 21.84C48.0819 22.2155 47.7774 22.52 47.4019 22.52C47.0262 22.52 46.7219 22.2155 46.7219 21.84C46.7219 21.4645 47.0262 21.16 47.4019 21.16ZM47.5409 32.04C47.1653 32.04 46.8609 31.7355 46.8609 31.36C46.8609 30.9845 47.1653 30.68 47.5409 30.68C47.9165 30.68 48.2209 30.9845 48.2209 31.36C48.2209 31.7355 47.9165 32.04 47.5409 32.04Z" fill="white"/>
</svg>
