<svg width="100" height="100" viewBox="0 0 100 100" fill="none" xmlns="http://www.w3.org/2000/svg">
<path d="M98.8 55.8H84.8V46.4H92.7V33.8H84.8V23.8H92.7V11.2H7.30001V23.8H14.6V33.8H7.30001V46.4H14.6V55.8H1.20001V67.2668H10H10.6L7.20001 89.0668H11.8L22 67.2668H77.4L87.6 89.0668H92.2L88.8 67.2668H98.8V55.8ZM17.9 15.4C18.8388 15.4 19.6 16.1612 19.6 17.1C19.6 18.0388 18.8388 18.8 17.9 18.8C16.9612 18.8 16.2 18.0388 16.2 17.1C16.2 16.1612 16.9612 15.4 17.9 15.4ZM18.2476 42.6C17.3088 42.6 16.5476 41.8388 16.5476 40.9C16.5476 39.9612 17.3088 39.2 18.2476 39.2C19.1864 39.2 19.9476 39.9612 19.9476 40.9C19.9476 41.8388 19.1864 42.6 18.2476 42.6ZM77.4 55.8H22V46.4H77.4V55.8ZM77.4 33.8H22V23.8H77.4V33.8ZM81.0048 15.4C81.9436 15.4 82.7048 16.1612 82.7048 17.1C82.7048 18.0388 81.9436 18.8 81.0048 18.8C80.0656 18.8 79.3048 18.0388 79.3048 17.1C79.3048 16.1612 80.0656 15.4 81.0048 15.4ZM81.3524 42.6C80.4132 42.6 79.6524 41.8388 79.6524 40.9C79.6524 39.9612 80.4132 39.2 81.3524 39.2C82.2912 39.2 83.0524 39.9612 83.0524 40.9C83.0524 41.8388 82.2912 42.6 81.3524 42.6Z" fill="black"/>
</svg>
