<svg width="51" height="79" viewBox="0 0 51 79" fill="none" xmlns="http://www.w3.org/2000/svg">
<path d="M25.0359 70.8322C33.7098 70.8322 40.7414 67.7877 40.7414 64.0322C40.7414 60.2766 33.7098 57.2322 25.0359 57.2322C16.362 57.2322 9.33047 60.2766 9.33047 64.0322C9.33047 67.7877 16.362 70.8322 25.0359 70.8322Z" fill="#453F3D"/>
<path d="M36.2291 21.25C42.2537 21.25 47.1376 16.493 47.1376 10.625C47.1376 4.75698 42.2537 0 36.2291 0C30.2045 0 25.3206 4.75698 25.3206 10.625C25.3206 16.493 30.2045 21.25 36.2291 21.25Z" fill="#CC622E"/>
<path d="M25.3211 52.2682C35.4923 52.2682 43.7376 42.0597 43.7376 29.467C43.7376 16.8742 35.4923 6.66571 25.3211 6.66571C15.1499 6.66571 6.90457 16.8742 6.90457 29.467C6.90457 42.0597 15.1499 52.2682 25.3211 52.2682Z" fill="#E1792D"/>
<path d="M29.9171 51.0238H20.5697V67.1475H29.9171V51.0238Z" fill="#FFB381"/>
<path d="M20.5697 56.27C21.9178 57.3848 23.5213 58.0338 25.243 58.0338C26.9655 58.0338 28.569 57.3848 29.9171 56.27V51.0238H20.5697V56.27Z" fill="#FFB381"/>
<path d="M41.0121 21.1157C40.3712 14.0981 29.8508 11.0385 24.4197 11.0849C18.4234 11.1363 10.1325 13.8814 9.46904 21.1246C9.07124 25.4694 8.83494 29.8529 8.90039 34.2168C8.95947 38.1599 8.66366 42.6666 9.91061 46.4576C11.8371 52.3103 19.2024 53.7391 24.3738 55.1943C24.6828 55.2815 24.9713 55.3057 25.2412 55.284C25.5102 55.3057 25.7997 55.2815 26.1086 55.1943C31.2635 53.7434 38.2063 52.3953 40.4307 46.8104C41.8668 43.2047 41.4715 38.6865 41.5689 34.8776C41.6853 30.2936 41.4303 25.6794 41.0121 21.1157Z" fill="#FFB381"/>
<path d="M50.4867 78.4572C50.1216 76.0874 49.1139 73.8528 48.1275 71.9692C46.7016 69.2415 45.1907 67.2568 42.8732 66.1203C37.4477 63.4573 31.5776 62.5342 25.9348 61.2511C25.6849 61.1946 25.4542 61.1891 25.2425 61.2222C25.03 61.1891 24.8001 61.195 24.551 61.2511C18.9075 62.5346 13.0369 63.4573 7.61097 66.1203C5.29344 67.2568 3.78342 69.2415 2.35669 71.9692C1.37154 73.8528 0.365991 76.087 0.000915527 78.4572H50.4867Z" fill="#453F3D"/>
<path d="M8.81968 32.6301C6.02828 30.1005 1.88197 29.9531 2.1 34.8151C2.1714 36.371 2.84375 37.8708 3.95597 38.9618C5.42095 40.3996 7.50133 40.7052 9.43933 40.3125C10.521 40.0932 11.277 38.9537 11.277 37.8976C11.2779 35.7637 10.2192 33.8979 8.81968 32.6301Z" fill="#FFB381"/>
<path d="M41.6671 32.6301C44.4585 30.1005 48.6048 29.9531 48.3868 34.8151C48.3154 36.371 47.643 37.8708 46.5308 38.9618C45.0658 40.3996 42.9855 40.7052 41.0475 40.3125C39.9659 40.0932 39.2098 38.9537 39.2098 37.8976C39.2089 35.7637 40.2676 33.8979 41.6671 32.6301Z" fill="#FFB381"/>
<path d="M22.327 28.7559C24.9012 32.0709 24.3334 37.2844 21.5582 40.3193C21.3771 40.5178 21.3406 40.7808 21.4685 41.0188C21.9224 41.8705 22.531 42.4881 23.2488 43.1341C23.8141 43.6419 24.6552 42.8055 24.0848 42.2981C23.8358 42.0767 22.4545 41.0337 22.7966 40.5683C23.2539 39.9449 23.6033 39.2785 23.922 38.5759C24.4465 37.4229 24.6773 36.1819 24.8001 34.9299C25.0385 32.5214 24.2765 30.1826 22.7397 28.3424C22.4953 28.0491 22.1018 28.4652 22.327 28.7559Z" fill="#EE7C61"/>
<path d="M16.4599 36.7662C17.4136 36.7662 18.1867 35.815 18.1867 34.6417C18.1867 33.4683 17.4136 32.5171 16.4599 32.5171C15.5063 32.5171 14.7332 33.4683 14.7332 34.6417C14.7332 35.815 15.5063 36.7662 16.4599 36.7662Z" fill="#271107"/>
<path d="M34.026 36.7662C34.9797 36.7662 35.7528 35.815 35.7528 34.6417C35.7528 33.4683 34.9797 32.5171 34.026 32.5171C33.0724 32.5171 32.2993 33.4683 32.2993 34.6417C32.2993 35.815 33.0724 36.7662 34.026 36.7662Z" fill="#271107"/>
<path d="M8.26461 35.6481C8.07123 34.9779 7.39633 34.592 6.82046 34.2699C6.14046 33.8895 5.39204 33.6829 4.62066 33.6073C3.87606 33.5342 3.90751 34.6575 4.62066 34.7527C4.88884 34.7884 5.14596 34.8572 5.39671 34.9469C5.02229 35.4497 4.93601 36.0714 5.10856 36.7094C5.29216 37.3923 5.93774 38.2857 6.73971 38.1879C7.18638 38.1331 7.45753 37.6478 7.11498 37.2823C6.82768 36.9775 6.47493 36.7893 6.31046 36.3783C6.18083 36.0519 6.13961 35.6762 6.26413 35.354C6.74056 35.6388 7.13666 36.0927 7.68193 36.23C8.02618 36.3167 8.36576 36.0017 8.26461 35.6481Z" fill="#EE7C61"/>
<path d="M42.5548 35.6481C42.7473 34.9779 43.4222 34.592 43.9981 34.2699C44.6781 33.8895 45.4265 33.6829 46.1979 33.6073C46.9425 33.5342 46.911 34.6575 46.1979 34.7527C45.9297 34.7884 45.6726 34.8572 45.4219 34.9469C45.7963 35.4497 45.8825 36.0714 45.7109 36.7094C45.5264 37.3923 44.8808 38.2857 44.0789 38.1879C43.6322 38.1331 43.361 37.6478 43.7044 37.2823C43.9909 36.9775 44.3436 36.7893 44.5081 36.3783C44.6377 36.0519 44.679 35.6762 44.5544 35.354C44.078 35.6388 43.6819 36.0927 43.1366 36.23C42.7924 36.3167 42.4528 36.0017 42.5548 35.6481Z" fill="#EE7C61"/>
<path d="M21.2598 45.9705C22.7274 48.2783 27.2277 48.2817 28.7054 45.9166L21.2598 45.9705Z" fill="#EB645F"/>
<path d="M20.7094 46.2919C22.6776 49.0536 27.3173 49.0089 29.2557 46.2379C29.5384 45.8342 29.1597 45.2753 28.7054 45.2787C26.2238 45.2966 23.7418 45.3148 21.2598 45.3327C20.4378 45.3386 20.4374 46.6136 21.2598 46.6077C23.7414 46.5898 26.2234 46.5716 28.7054 46.5537C28.5218 46.2341 28.3386 45.9141 28.155 45.5945C26.7924 47.5423 23.2003 47.5988 21.8106 45.6485C21.3376 44.985 20.2313 45.6208 20.7094 46.2919Z" fill="#EB645F"/>
<path d="M25.463 9.06787C15.2133 9.06787 6.90457 18.3282 6.90457 29.7518C6.90457 30.1674 6.9186 30.5788 6.9407 30.9885C10.4703 29.2443 14.575 27.9867 19.0302 27.3628L21.3546 18.7009L22.8497 26.991C23.7112 26.9429 24.5829 26.9179 25.463 26.9179C27.4389 26.9179 29.3696 27.0449 31.2435 27.2795L32.4046 22.9509L33.238 27.5732C37.176 28.2481 40.8132 29.4215 43.985 30.9885C44.0066 30.5788 44.0211 30.167 44.0211 29.7518C44.0211 18.3282 35.7123 9.06787 25.463 9.06787Z" fill="#E1792D"/>
<path d="M17.2439 78.4572V68.7073C17.2439 68.1595 16.7998 67.7153 16.2524 67.7153C15.7046 67.7153 15.2605 68.1595 15.2605 68.7073V78.4572H17.2439Z" fill="#8A827E"/>
<path d="M35.377 78.4572V68.7073C35.377 68.1595 34.9329 67.7153 34.3854 67.7153C33.8376 67.7153 33.3935 68.1595 33.3935 68.7073V78.4572H35.377Z" fill="#8A827E"/>
<path d="M32.6566 60.7473H18.6316V64.2536H32.6566V60.7473Z" fill="#453F3D"/>
</svg>
