<svg width="51" height="75" viewBox="0 0 51 75" fill="none" xmlns="http://www.w3.org/2000/svg">
<path d="M29.9164 47.2471H20.5698V63.3704H29.9164V47.2471Z" fill="#FFB381"/>
<path d="M20.5698 52.4933C21.9179 53.6081 23.5206 54.2571 25.2431 54.2571C26.9656 54.2571 28.5683 53.6081 29.9164 52.4933V47.2471H20.5698V52.4933Z" fill="#FFB381"/>
<path d="M41.0122 17.339C40.3704 10.3214 29.85 7.26187 24.4189 7.3082C18.4234 7.35962 10.1317 10.1047 9.46825 17.348C9.0713 21.6927 8.83415 26.0762 8.8996 30.4405C8.95867 34.3837 8.66287 38.8899 9.91067 42.6805C11.8372 48.5336 19.2024 49.9625 24.373 51.4177C24.682 51.5044 24.9714 51.529 25.2404 51.5073C25.5094 51.529 25.7989 51.5044 26.1078 51.4177C31.2627 49.9667 38.2055 48.6186 40.4299 43.0337C41.866 39.428 41.4716 34.9098 41.5681 31.101C41.6845 26.5169 41.4295 21.9027 41.0122 17.339Z" fill="#FFB381"/>
<path d="M10.0909 28.4247C10.0667 28.3618 10.0709 28.3746 10.0909 28.4247V28.4247Z" fill="#FFB381"/>
<path d="M10.9262 30.2166C10.7196 29.7134 10.4978 29.2361 10.2381 28.7597C10.1867 28.6654 10.1212 28.5026 10.091 28.4244C10.1127 28.4835 10.159 28.6071 10.2415 28.8354C10.1561 28.6071 10.0604 28.3832 9.95418 28.1639C9.45693 27.5149 9.43271 27.4881 9.88108 28.0844C9.42378 27.4418 8.61373 26.9029 7.79348 26.8544C7.70296 26.8213 7.61498 26.7864 7.51638 26.7614C6.28388 26.4503 5.03183 26.9479 4.21116 27.8821C2.41893 29.9208 2.94763 33.0322 4.49761 35.0106C5.16571 35.8649 6.38928 36.411 7.46495 36.3647C8.89253 36.303 10.0417 35.4093 10.7115 34.1848C11.3864 32.9511 11.4604 31.5167 10.9262 30.2166Z" fill="#FFB381"/>
<path d="M40.3952 28.4247C40.4194 28.3618 40.4151 28.3746 40.3952 28.4247V28.4247Z" fill="#FFB381"/>
<path d="M39.775 34.1852C40.4448 35.4096 41.5935 36.3034 43.0215 36.365C44.0972 36.4114 45.3208 35.8652 45.9889 35.011C47.5385 33.0326 48.0676 29.9212 46.2754 27.8825C45.4543 26.9487 44.2026 26.4506 42.9701 26.7617C42.8715 26.7868 42.7835 26.8217 42.693 26.8548C41.8728 26.9028 41.0627 27.4422 40.6054 28.0848C41.0538 27.4885 41.0296 27.5148 40.5323 28.1642C40.4261 28.3835 40.3304 28.6075 40.245 28.8357C40.327 28.6075 40.3738 28.4838 40.3955 28.4248C40.3657 28.503 40.2998 28.6657 40.2484 28.7601C39.9887 29.2365 39.7669 29.7138 39.5603 30.217C39.0257 31.5166 39.0996 32.951 39.775 34.1852Z" fill="#FFB381"/>
<path d="M17.0912 34.4057C18.1504 34.4057 19.0092 33.042 19.0092 31.3598C19.0092 29.6775 18.1504 28.3138 17.0912 28.3138C16.0319 28.3138 15.1731 29.6775 15.1731 31.3598C15.1731 33.042 16.0319 34.4057 17.0912 34.4057Z" fill="#3C1E05"/>
<path d="M34.0198 34.4057C35.0791 34.4057 35.9378 33.042 35.9378 31.3598C35.9378 29.6775 35.0791 28.3138 34.0198 28.3138C32.9605 28.3138 32.1017 29.6775 32.1017 31.3598C32.1017 33.042 32.9605 34.4057 34.0198 34.4057Z" fill="#3C1E05"/>
<path d="M40.4485 10.5271C38.8828 8.47687 36.9346 6.88482 34.7152 5.63957C30.2064 0.525967 20.2261 -0.964083 14.1036 0.579942C10.3708 1.52089 9.00016 4.94639 9.94153 8.04082C8.92876 8.49387 7.95593 9.03107 7.04303 9.65667C3.39313 12.1557 0.949386 17.4452 5.55043 20.4823C5.89596 20.7101 6.24998 20.9064 6.61038 21.0798C6.74978 23.8776 7.38813 26.6771 8.26236 29.1637C8.94958 31.1179 11.7129 30.3363 11.3428 28.3146C10.9875 26.3779 10.741 24.1934 10.7975 22.0259C13.8116 22.0905 16.9502 21.0777 19.6022 19.9421C21.363 19.1881 23.1896 18.1694 24.9015 16.9518C25.2819 18.1936 26.2156 19.2595 27.9356 19.9468C32.3344 21.7058 35.3655 17.8664 36.3094 13.6525C36.5393 13.8926 36.7641 14.1379 36.98 14.3899C39.8688 17.7703 39.2801 24.2992 38.544 28.3146C38.1739 30.3363 40.9372 31.1179 41.6244 29.1637C43.6785 23.3213 44.4388 15.7558 40.4485 10.5271Z" fill="#6B3F1C"/>
<path d="M14.1266 23.1771C15.0574 22.5562 15.9592 22.2557 17.0812 22.2905C17.9839 22.3182 18.7851 22.8486 19.6844 22.7406C20.151 22.6845 20.3465 22.2276 20.0503 21.8562C19.3745 21.007 18.1012 20.8723 17.0812 20.7644C15.7455 20.6228 14.4386 21.1163 13.3421 21.8354C12.507 22.3832 13.2915 23.7343 14.1266 23.1771Z" fill="#6B3F1C"/>
<path d="M36.9344 21.41C35.891 20.7262 34.8149 20.3653 33.5667 20.325C32.4872 20.2897 30.9253 20.5532 30.2262 21.4317C29.9304 21.8031 30.1259 22.2596 30.5921 22.3161C31.4706 22.4219 32.3155 21.9519 33.1948 21.8656C34.2875 21.7585 35.2595 22.158 36.1499 22.7517C36.985 23.3089 37.7695 21.9574 36.9344 21.41Z" fill="#6B3F1C"/>
<path d="M22.401 25.5805C24.6463 28.6206 26.6212 34.1124 22.6173 36.6025C22.2794 36.8124 22.268 37.2128 22.5013 37.5014C23.3798 38.5906 24.6454 40.0407 26.1682 39.7033C26.3722 39.6582 26.4385 39.3773 26.291 39.2371C25.3263 38.3165 24.1737 37.7674 23.3113 36.6922C23.2722 36.9918 23.2336 37.2914 23.1953 37.591C27.6123 34.4397 25.7916 28.7629 22.9335 25.17C22.6942 24.8699 22.1728 25.272 22.401 25.5805Z" fill="#D1722E"/>
<path d="M15.5759 41.4892C19.879 41.4892 23.3674 38.0008 23.3674 33.6976C23.3674 29.3945 19.879 25.9061 15.5759 25.9061C11.2727 25.9061 7.78433 29.3945 7.78433 33.6976C7.78433 38.0008 11.2727 41.4892 15.5759 41.4892Z" stroke="#6B3F1C" stroke-miterlimit="10"/>
<path d="M35.409 41.4892C39.7121 41.4892 43.2005 38.0008 43.2005 33.6976C43.2005 29.3945 39.7121 25.9061 35.409 25.9061C31.1058 25.9061 27.6174 29.3945 27.6174 33.6976C27.6174 38.0008 31.1058 41.4892 35.409 41.4892Z" stroke="#6B3F1C" stroke-miterlimit="10"/>
<path d="M23.5094 32.7411C23.5094 32.7411 25.8469 31.2536 27.5469 32.8473" stroke="#6B3F1C" stroke-miterlimit="10"/>
<path d="M24.0767 43.1458C25.8439 44.2619 28.5392 43.9125 29.5125 41.8857C29.6208 41.6596 29.3497 41.4263 29.1576 41.6116C27.7904 42.9333 26.1703 43.7311 24.3581 42.6643C24.047 42.4807 23.7737 42.9546 24.0767 43.1458Z" fill="#895837"/>
<path d="M50.4866 74.6799C50.1207 72.3105 49.113 70.0759 48.1266 68.1923C46.7007 65.4646 45.1898 63.4799 42.8723 62.343C37.4467 59.6804 31.5766 58.7573 25.9339 57.4742C25.684 57.4177 25.4541 57.4121 25.2416 57.4453C25.0299 57.4121 24.7992 57.4181 24.5501 57.4742C18.9065 58.7577 13.036 59.6804 7.6109 62.343C5.29252 63.4799 3.78335 65.4646 2.35662 68.1923C1.37147 70.0759 0.365925 72.3101 0 74.6799H50.4866Z" fill="#8A827F"/>
<path d="M31.7096 58.7369C31.8949 58.4955 32.0093 58.1967 32.0093 57.8686C32.0093 57.0768 31.3667 56.4342 30.5749 56.4342H20.0561C19.2644 56.4342 18.6218 57.0768 18.6218 57.8686C18.6218 58.1831 18.7263 58.4721 18.898 58.7088C17.49 59.0225 16.0815 59.3557 14.6829 59.7416C15.9638 63.4255 20.3158 66.1382 25.4906 66.1382C30.6055 66.1382 34.9163 63.4875 36.2516 59.8686C34.7458 59.4402 33.2277 59.0769 31.7096 58.7369Z" fill="#E5E5E5"/>
</svg>
