<svg width="51" height="73" viewBox="0 0 51 73" fill="none" xmlns="http://www.w3.org/2000/svg">
<path d="M29.9162 44.6876H20.5692V60.8108H29.9162V44.6876Z" fill="#A06340"/>
<path d="M20.5692 49.9338C21.9173 51.0485 23.5204 51.6975 25.2429 51.6975C26.9654 51.6975 28.5685 51.0485 29.9162 49.9338V44.6876H20.5692V49.9338Z" fill="#6D4019"/>
<path d="M41.012 14.779C40.3703 7.76139 29.8498 4.70181 24.4188 4.74814C18.4229 4.79956 10.1315 7.54464 9.46811 14.7879C9.07074 19.1327 8.83401 23.5161 8.89946 27.8805C8.95854 31.8236 8.66274 36.3303 9.91054 40.1209C11.8366 45.974 19.2023 47.4028 24.3729 48.858C24.6818 48.9447 24.9713 48.9694 25.2403 48.9477C25.5097 48.9694 25.7992 48.9447 26.1081 48.858C31.263 47.4071 38.2053 46.059 40.4298 40.4741C41.8659 36.8684 41.4715 32.3502 41.5684 28.5409C41.6848 23.9573 41.4294 19.3426 41.012 14.779Z" fill="#A06340"/>
<path d="M50.4866 72.1203C50.1207 69.7509 49.113 67.5163 48.127 65.6327C46.7007 62.905 45.1902 60.9203 42.8727 59.7834C37.4467 57.1208 31.5766 56.1977 25.9339 54.9146C25.6844 54.8581 25.4541 54.8526 25.2416 54.8857C25.0299 54.8526 24.7992 54.8585 24.5501 54.9146C18.9065 56.1981 13.036 57.1208 7.6109 59.7834C5.29252 60.9203 3.78292 62.905 2.35662 65.6327C1.37147 67.5163 0.3655 69.7505 0 72.1203H50.4866Z" fill="#A06340"/>
<path d="M10.0906 25.8647C10.0672 25.8022 10.071 25.815 10.0906 25.8647V25.8647Z" fill="#FFB381"/>
<path d="M10.926 27.6568C10.7195 27.1536 10.4972 26.6764 10.2379 26.2C10.1865 26.1056 10.1211 25.9428 10.0905 25.8646C10.1126 25.9237 10.1585 26.0474 10.2409 26.2756C10.1555 26.0474 10.0599 25.8234 9.95362 25.6041C9.45637 24.9551 9.43214 24.9283 9.88052 25.5246C9.42322 24.882 8.61274 24.3431 7.79292 24.2947C7.70239 24.2615 7.61442 24.2267 7.51539 24.2016C6.28332 23.8905 5.03085 24.3882 4.21017 25.3223C2.41837 27.3611 2.94707 30.4725 4.49662 32.4509C5.16472 33.3047 6.38872 33.8512 7.46439 33.8049C8.89154 33.7433 10.0412 32.8495 10.711 31.6251C11.3867 30.3913 11.4607 28.9565 10.926 27.6568Z" fill="#A06340"/>
<path d="M40.3961 25.8647C40.4198 25.8022 40.4156 25.8149 40.3961 25.8647V25.8647Z" fill="#FFB381"/>
<path d="M39.7755 31.6255C40.4453 32.8499 41.5945 33.7437 43.0221 33.8053C44.0977 33.8516 45.3217 33.3051 45.9898 32.4512C47.5394 30.4729 48.0681 27.361 46.2763 25.3227C45.4552 24.389 44.2031 23.8909 42.9711 24.202C42.872 24.2271 42.7841 24.2619 42.6935 24.2951C41.8737 24.3431 41.0632 24.8824 40.6059 25.525C41.0543 24.9287 41.0301 24.9551 40.5328 25.6045C40.4266 25.8238 40.3309 26.0478 40.2455 26.276C40.328 26.0478 40.3743 25.9241 40.396 25.865C40.3658 25.9432 40.2999 26.106 40.2485 26.2003C39.9892 26.6768 39.767 27.154 39.5604 27.6572C39.0258 28.9565 39.0997 30.3913 39.7755 31.6255Z" fill="#A06340"/>
<path d="M22.4005 23.021C24.6458 26.061 26.6207 31.5528 22.6168 34.0433C22.2789 34.2533 22.2675 34.6536 22.5012 34.9422C23.3793 36.0315 24.6449 37.4816 26.1677 37.1441C26.3717 37.0991 26.438 36.8181 26.2905 36.6779C25.3258 35.7573 24.1732 35.2082 23.3104 34.133C23.2717 34.4326 23.2331 34.7323 23.1948 35.0319C27.6118 31.8805 25.7911 26.2038 22.933 22.6104C22.6942 22.3104 22.1727 22.712 22.4005 23.021Z" fill="#6D4019"/>
<path d="M13.8341 23.9173C14.8252 23.1676 16.2 22.6411 17.4053 22.5352C17.8422 22.497 18.1639 22.8344 18.654 22.9556C19.4449 23.1511 19.861 22.5246 19.9341 21.8127C20.1474 19.7171 18.0016 19.2755 16.3938 19.6176C14.9892 19.9172 13.5221 21.2743 12.6309 22.3584C11.9717 23.1604 12.8689 24.6479 13.8341 23.9173Z" fill="#341908"/>
<path d="M17.0912 31.8462C18.1505 31.8462 19.0092 30.4823 19.0092 28.7998C19.0092 27.1173 18.1505 25.7534 17.0912 25.7534C16.0319 25.7534 15.1732 27.1173 15.1732 28.7998C15.1732 30.4823 16.0319 31.8462 17.0912 31.8462Z" fill="#17100A"/>
<path d="M36.2273 23.9173C35.2362 23.1676 33.8609 22.6411 32.656 22.5352C32.2191 22.497 31.8969 22.8344 31.4073 22.9556C30.6168 23.1511 30.2003 22.5246 30.1277 21.8127C29.9139 19.7171 32.0597 19.2755 33.6675 19.6176C35.0721 19.9172 36.5396 21.2743 37.4304 22.3584C38.0896 23.1604 37.1924 24.6479 36.2273 23.9173Z" fill="#341908"/>
<path d="M34.0197 31.8462C35.079 31.8462 35.9377 30.4823 35.9377 28.7998C35.9377 27.1173 35.079 25.7534 34.0197 25.7534C32.9604 25.7534 32.1017 27.1173 32.1017 28.7998C32.1017 30.4823 32.9604 31.8462 34.0197 31.8462Z" fill="#17100A"/>
<path d="M20.9589 39.2122C20.9589 39.2122 25.9454 42.0456 30.3089 39.2122C30.3089 39.2122 25.3224 46.0122 20.9589 39.2122Z" fill="white"/>
<path d="M40.02 8.46345C38.5317 5.49355 35.7428 2.27163 32.5383 1.0948C30.3636 0.296225 27.9879 0 25.681 0C19.2023 0 14.2825 2.6384 11.2509 8.46345C8.50202 13.7466 7.47778 19.8029 8.1599 25.7125C8.2653 26.6275 9.64995 26.6802 9.62743 25.7125C9.56665 23.0839 9.84503 20.5211 10.4889 17.9711C11.0839 15.6128 12.3151 13.5575 13.3462 11.3862C13.9255 10.1652 14.5621 8.97218 15.3492 7.9305C17.206 9.7767 21.1347 11.05 25.6814 11.05C30.1779 11.05 34.0683 9.8039 35.9502 7.99128C36.6451 8.9352 37.2252 10.0011 37.7862 11.1031C40.2083 15.8585 41.7698 20.2955 41.6435 25.7125C41.621 26.6802 43.0057 26.6275 43.1111 25.7125C43.8013 19.7434 42.7043 13.8197 40.02 8.46345Z" fill="#492C1C"/>
<path d="M48.3239 65.4623C46.8976 62.7346 45.3871 60.7499 43.0696 59.613C39.6594 57.9394 36.0733 56.9534 32.4782 56.1331C32.5347 56.4013 32.5721 56.6737 32.5721 56.9538C32.5721 59.885 29.3791 62.2616 25.4402 62.2616C21.5005 62.2616 18.3078 59.885 18.3078 56.9538C18.3078 56.6737 18.3457 56.4009 18.4018 56.1327C14.8063 56.9534 11.2193 57.9394 7.8078 59.613C5.48943 60.7499 3.97983 62.7346 2.55353 65.4623C1.56838 67.3459 0.562399 69.5801 0.196899 71.9499H50.6839C50.3176 69.5801 49.3099 67.3459 48.3239 65.4623Z" fill="#2B2B29"/>
</svg>
