<svg width="51" height="76" viewBox="0 0 51 76" fill="none" xmlns="http://www.w3.org/2000/svg">
<path d="M29.917 48.3204H20.5696V64.4432H29.917V48.3204Z" fill="#FFC599"/>
<path d="M20.5696 53.5666C21.9177 54.681 23.5208 55.33 25.2433 55.33C26.9658 55.33 28.5689 54.681 29.917 53.5666V48.3204H20.5696V53.5666Z" fill="#E8A374"/>
<path d="M41.0125 18.4115C40.3707 11.3939 29.8503 8.33432 24.4196 8.38064C18.4233 8.43207 10.1324 11.1771 9.469 18.4204C9.0712 22.7652 8.8349 27.1491 8.89993 31.513C8.95943 35.4566 8.66363 39.9633 9.911 43.7534C11.8371 49.6069 19.2028 51.0354 24.3733 52.4906C24.6823 52.5773 24.9717 52.6023 25.2408 52.5802C25.5102 52.6023 25.7996 52.5773 26.1086 52.4906C31.2638 51.04 38.2058 49.6919 40.4307 44.1066C41.8667 40.5009 41.4719 35.9831 41.5692 32.1739C41.6857 27.5902 41.4303 22.9756 41.0125 18.4115Z" fill="#FFC599"/>
<path d="M50.4866 75.7529C50.1211 73.3835 49.113 71.1489 48.1274 69.2657C46.7007 66.5381 45.1907 64.5533 42.8731 63.416C37.4467 60.7538 31.5766 59.8307 25.9339 58.5477C25.6844 58.4907 25.4541 58.4852 25.242 58.5183C25.0299 58.4852 24.7992 58.4911 24.5501 58.5477C18.907 59.8312 13.0364 60.7538 7.6109 63.416C5.29295 64.5533 3.78292 66.5381 2.35662 69.2657C1.37147 71.1489 0.3655 73.3835 0 75.7529H50.4866Z" fill="#341908"/>
<path d="M10.0908 29.4976C10.0674 29.4347 10.0716 29.4475 10.0908 29.4976V29.4976Z" fill="#FFB381"/>
<path d="M10.9263 31.2898C10.7198 30.7862 10.4975 30.3093 10.2387 29.8329C10.1872 29.7381 10.1214 29.5753 10.0908 29.4976C10.1133 29.5562 10.1588 29.6803 10.2416 29.9085C10.1558 29.6803 10.0602 29.4563 9.95435 29.237C9.4571 28.5876 9.43245 28.5609 9.88082 29.1571C9.42394 28.5145 8.61305 27.9761 7.79322 27.9276C7.70269 27.8945 7.61514 27.8596 7.51569 27.8345C6.28404 27.5234 5.03114 28.0211 4.21047 28.9553C2.41909 30.9936 2.94779 34.105 4.49692 36.0838C5.16502 36.9372 6.38944 37.4842 7.46512 37.4378C8.89184 37.3762 10.0415 36.482 10.7113 35.258C11.387 34.0238 11.4605 32.5894 10.9263 31.2898Z" fill="#FFC599"/>
<path d="M40.3962 29.4976C40.4196 29.4347 40.4154 29.4475 40.3962 29.4976V29.4976Z" fill="#FFB381"/>
<path d="M39.7753 35.2585C40.4455 36.4825 41.5947 37.3767 43.0219 37.4383C44.0976 37.4846 45.322 36.9376 45.9901 36.0842C47.5392 34.1054 48.0679 30.9936 46.2765 28.9557C45.4554 28.022 44.203 27.5239 42.9713 27.835C42.8719 27.8601 42.7839 27.8949 42.6934 27.9281C41.874 27.9761 41.0631 28.515 40.6058 29.1576C41.0541 28.5613 41.0299 28.5877 40.5327 29.2375C40.4268 29.4568 40.3308 29.6808 40.2454 29.909C40.3282 29.6808 40.3741 29.5567 40.3962 29.498C40.3656 29.5758 40.2998 29.7386 40.2483 29.8333C39.9895 30.3098 39.7672 30.7866 39.5603 31.2902C39.0265 32.5895 39.1 34.0238 39.7753 35.2585Z" fill="#FFC599"/>
<path d="M22.4009 26.6539C24.6457 29.6935 26.6211 35.1858 22.6168 37.6763C22.2793 37.8862 22.2679 38.2866 22.5012 38.5756C23.3797 39.6644 24.6449 41.1145 26.1677 40.7771C26.3721 40.732 26.438 40.4511 26.2909 40.3108C25.3266 39.3903 24.1736 38.8412 23.3112 37.7655C23.2726 38.0656 23.2339 38.3652 23.1956 38.6648C27.6127 35.5134 25.7915 29.8367 22.9334 26.2433C22.6941 25.9433 22.1727 26.3449 22.4009 26.6539Z" fill="#ED9254"/>
<path d="M13.8342 27.5503C14.8253 26.8006 16.2006 26.2736 17.4055 26.1682C17.8424 26.13 18.1645 26.467 18.6541 26.5881C19.445 26.784 19.8615 26.1572 19.9342 25.4453C20.1476 23.35 18.0022 22.908 16.394 23.2506C14.9893 23.5498 13.5222 24.9068 12.631 25.991C11.9718 26.7934 12.8694 28.2805 13.8342 27.5503Z" fill="#F9C34B"/>
<path d="M17.0914 35.4787C18.1507 35.4787 19.0094 34.1149 19.0094 32.4327C19.0094 30.7504 18.1507 29.3867 17.0914 29.3867C16.0321 29.3867 15.1733 30.7504 15.1733 32.4327C15.1733 34.1149 16.0321 35.4787 17.0914 35.4787Z" fill="#3C1E05"/>
<path d="M36.2278 27.5503C35.2367 26.8006 33.8614 26.2736 32.657 26.1682C32.2197 26.13 31.8975 26.467 31.4083 26.5881C30.6178 26.784 30.2009 26.1572 30.1287 25.4453C29.9149 23.35 32.0603 22.908 33.6685 23.2506C35.0731 23.5498 36.5402 24.9068 37.4314 25.991C38.0906 26.7934 37.193 28.2805 36.2278 27.5503Z" fill="#F9C34B"/>
<path d="M34.0204 35.4787C35.0797 35.4787 35.9385 34.1149 35.9385 32.4327C35.9385 30.7504 35.0797 29.3867 34.0204 29.3867C32.9611 29.3867 32.1024 30.7504 32.1024 32.4327C32.1024 34.1149 32.9611 35.4787 34.0204 35.4787Z" fill="#3C1E05"/>
<path d="M20.9593 42.8451C20.9593 42.8451 25.9458 45.6781 30.3093 42.8451C30.3093 42.8451 25.3228 49.6451 20.9593 42.8451Z" fill="white"/>
<path d="M33.2125 60.1287L29.8847 56.4435L25.3173 58.5183L25.2794 58.5927L25.242 58.5183L20.6746 56.4435L17.3468 60.1287L20.3915 68.0604L25.2794 61.2167L30.1682 68.0604L33.2125 60.1287Z" fill="#794824"/>
<path d="M44.6836 8.86045C42.8591 8.3275 40.5033 8.66793 38.9253 8.2935C37.5062 7.9569 36.7242 5.45365 36.0026 4.19438C31.5346 -3.60735 18.9418 0.598451 15.4891 7.66195C14.9375 8.34238 14.4844 9.07253 14.1261 9.83455C10.8868 9.5311 7.87693 13.6047 6.83058 16.6477C5.14078 21.5624 6.44851 27.7483 9.15618 32.0336C9.75671 32.9843 11.4988 32.3689 11.0496 31.2354C9.75586 27.9693 9.69126 23.2144 10.7291 19.8561C11.0933 18.6775 11.7444 17.564 12.4121 16.5355C13.107 15.465 12.9149 15.5563 13.4602 16.0073C13.6327 16.7357 13.8932 17.4612 14.2524 18.1743C16.6923 23.0147 23.0792 23.2335 27.5085 21.6292C29.9408 20.7477 31.3025 20.3954 33.0582 21.8421C34.7658 23.2488 36.3434 24.5651 38.3966 25.4274C39.2194 25.7729 40.089 25.8277 40.9134 25.6607C40.8582 27.6506 40.5203 29.6242 39.882 31.2358C39.4332 32.3693 41.1748 32.9847 41.7753 32.034C43.5943 29.1555 44.7758 25.4193 44.8472 21.7864C45.279 20.6147 45.6373 19.3724 46.2468 18.6219C47.5706 16.992 48.6374 15.6001 48.8673 13.4534C49.13 10.9999 46.676 9.44355 44.6836 8.86045Z" fill="#F9C34B"/>
</svg>
