<svg width="51" height="74" viewBox="0 0 51 74" fill="none" xmlns="http://www.w3.org/2000/svg">
<path d="M29.9171 46.1389H20.5696V62.2622H29.9171V46.1389Z" fill="#FFB381"/>
<path d="M20.5696 51.3851C21.9177 52.4995 23.5208 53.1484 25.2433 53.1484C26.9659 53.1484 28.569 52.4995 29.9171 51.3851V46.1389H20.5696V51.3851Z" fill="#FFB381"/>
<path d="M41.0125 16.23C40.3707 9.2128 29.8503 6.1528 24.4196 6.19913C18.4233 6.25055 10.1324 8.99562 9.46897 16.2389C9.07117 20.5841 8.83487 24.9675 8.8999 29.3319C8.9594 33.275 8.6636 37.7817 9.91097 41.5723C11.8371 47.4254 19.2027 48.8538 24.3733 50.309C24.6823 50.3961 24.9717 50.4208 25.2407 50.3987C25.5102 50.4208 25.7996 50.3961 26.1086 50.309C31.2634 48.8585 38.2058 47.5104 40.4306 41.925C41.8667 38.3193 41.4719 33.8016 41.5688 29.9923C41.6852 25.4087 41.4302 20.794 41.0125 16.23Z" fill="#FFB381"/>
<path d="M50.4866 73.5718C50.1211 71.202 49.113 68.9674 48.127 67.0842C46.7007 64.3566 45.1902 62.3718 42.8727 61.2349C37.4467 58.5723 31.5766 57.6492 25.9339 56.3661C25.6844 56.3092 25.4541 56.3037 25.242 56.3368C25.0299 56.3037 24.7992 56.3096 24.5501 56.3661C18.907 57.6496 13.0364 58.5723 7.6109 61.2349C5.29295 62.3718 3.78292 64.3566 2.35662 67.0842C1.37147 68.9674 0.3655 71.202 0 73.5718H50.4866Z" fill="#FFB381"/>
<path d="M8.82001 27.7454C6.02776 25.2158 1.88146 25.0683 2.09991 29.9303C2.17173 31.4862 2.84366 32.9865 3.95588 34.0774C5.42086 35.5148 7.50123 35.8208 9.43923 35.4277C10.5204 35.2084 11.2774 34.0689 11.2774 33.0128C11.2782 30.8785 10.2187 29.0127 8.82001 27.7454Z" fill="#FFB381"/>
<path d="M41.6666 27.7454C44.4588 25.2158 48.6051 25.0683 48.3866 29.9303C48.3148 31.4862 47.6429 32.9865 46.5307 34.0774C45.0657 35.5148 42.9853 35.8208 41.0473 35.4277C39.9661 35.2084 39.2092 34.0689 39.2092 33.0128C39.2083 30.8785 40.2679 29.0127 41.6666 27.7454Z" fill="#FFB381"/>
<path d="M22.3274 23.871C24.9008 27.186 24.3334 32.3995 21.5586 35.434C21.3771 35.6324 21.341 35.8959 21.468 36.1339C21.9224 36.9852 22.531 37.6027 23.2488 38.2487C23.8145 38.757 24.6551 37.9202 24.0848 37.4128C23.8353 37.1913 22.4545 36.1488 22.7962 35.6834C23.2535 35.06 23.6028 34.3936 23.922 33.691C24.446 32.5376 24.6768 31.2966 24.8005 30.045C25.0385 27.6361 24.2769 25.2973 22.7401 23.4575C22.4953 23.1642 22.1013 23.5799 22.3274 23.871Z" fill="#EE7C61"/>
<path d="M16.4603 31.8815C17.4139 31.8815 18.187 30.9301 18.187 29.7565C18.187 28.5829 17.4139 27.6315 16.4603 27.6315C15.5066 27.6315 14.7335 28.5829 14.7335 29.7565C14.7335 30.9301 15.5066 31.8815 16.4603 31.8815Z" fill="#271107"/>
<path d="M34.0264 31.8815C34.9801 31.8815 35.7532 30.9301 35.7532 29.7565C35.7532 28.5829 34.9801 27.6315 34.0264 27.6315C33.0727 27.6315 32.2996 28.5829 32.2996 29.7565C32.2996 30.9301 33.0727 31.8815 34.0264 31.8815Z" fill="#271107"/>
<path d="M41.7529 13.9937C41.7907 13.8062 41.82 13.6175 41.8425 13.4293C42.7826 13.0927 43.5825 12.5376 44.3207 11.5057C45.4482 9.92853 44.9718 7.30586 44.0572 5.77033C42.7686 3.60623 40.4349 3.14171 38.1166 2.95131C37.0643 1.09108 34.6957 0.227906 32.3293 0.612956C30.5108 0.908756 28.9604 2.06136 27.8792 3.55141C27.8894 3.22543 27.8987 2.89946 27.9 2.57008C27.9093 -0.856694 22.5769 -0.856694 22.5866 2.57008C22.5875 2.89946 22.5964 3.22586 22.607 3.55183C21.5258 2.06178 19.9759 0.908756 18.1569 0.612956C15.7905 0.227906 13.4219 1.09108 12.3696 2.95131C10.0517 3.14171 7.71844 3.60623 6.42941 5.77033C5.51481 7.30586 5.03796 9.92853 6.16591 11.5057C6.90371 12.538 7.70356 13.0927 8.64409 13.4293C8.66661 13.6175 8.69594 13.8062 8.73334 13.9937C4.05154 16.3031 5.56624 23.4435 7.49616 27.8261C8.85616 30.9146 13.4449 28.246 12.0432 25.1682C11.0959 23.0878 8.85234 18.5012 12.0449 17.5331C13.331 17.1429 14.1172 15.5606 13.3378 14.3549C13.1763 14.1054 13.0484 13.8725 12.9493 13.6554C15.6978 15.2474 20.3163 13.0166 20.8331 9.90005C20.4871 11.9881 23.888 12.9635 25.1694 12.8865C27.4512 12.7505 28.107 11.711 29.5996 10.0148C30.5809 12.9652 34.5563 15.3813 37.5369 13.6549C37.4383 13.8725 37.3099 14.1054 37.1488 14.3545C36.3694 15.5602 37.1552 17.1425 38.4417 17.5326C41.6343 18.5008 39.3903 23.0874 38.4434 25.1678C37.0417 28.2456 41.6305 30.9142 42.9905 27.8257C44.92 23.444 46.4347 16.3031 41.7529 13.9937Z" fill="#B64300"/>
<path d="M14.1916 24.6144C15.5274 23.6169 17.6026 22.7682 19.2716 23.2327C20.2351 23.5005 21.182 22.5757 20.9006 21.6041C19.5989 17.1136 12.5354 19.6597 12.5349 23.6641C12.5354 24.427 13.4997 25.1308 14.1916 24.6144Z" fill="#B64300"/>
<path d="M36.295 24.6144C34.9593 23.6169 32.884 22.7682 31.2146 23.2327C30.2511 23.5005 29.3042 22.5757 29.586 21.6041C30.8878 17.1136 37.9508 19.6597 37.9513 23.6641C37.9508 24.427 36.9869 25.1308 36.295 24.6144Z" fill="#B64300"/>
<path d="M31.1002 40.0768C31.1002 40.0768 24.9538 47.4871 19.3859 40.0768C19.3864 40.0768 24.2913 42.3888 31.1002 40.0768Z" fill="#FFFFEC"/>
<path d="M48.1275 67.0843C46.7012 64.3567 45.1907 62.3719 42.8732 61.235C39.463 59.5614 35.8768 58.5754 32.2822 57.7551C32.3383 58.0233 32.3761 58.2957 32.3761 58.5758C32.3761 61.5066 29.1827 63.8832 25.2438 63.8832C21.3049 63.8832 18.1114 61.5066 18.1114 58.5758C18.1114 58.2957 18.1497 58.0229 18.2053 57.7547C14.6098 58.5754 11.0228 59.5614 7.61136 61.235C5.29341 62.3719 3.78338 64.3567 2.35708 67.0843C1.37193 68.9675 0.365958 71.2021 0.000457764 73.5719H50.4875C50.1211 71.2021 49.113 68.9675 48.1275 67.0843Z" fill="#CA3231"/>
<path d="M8.26416 30.7629C8.07121 30.0927 7.39631 29.7063 6.82086 29.3846C6.14043 29.0038 5.39201 28.7981 4.62063 28.722C3.87603 28.6489 3.90748 29.7726 4.62063 29.8674C4.88881 29.9035 5.14636 29.972 5.39668 30.0616C5.02226 30.5648 4.93598 31.1862 5.10811 31.8245C5.29256 32.5071 5.93813 33.4009 6.73968 33.3031C7.18636 33.2483 7.45751 32.7625 7.11453 32.3974C6.82766 32.0923 6.47491 31.9044 6.31043 31.493C6.18081 31.1671 6.14001 30.7914 6.26411 30.4692C6.74053 30.754 7.13663 31.2079 7.68233 31.3451C8.02616 31.4318 8.36616 31.1169 8.26416 30.7629Z" fill="#EE7C61"/>
<path d="M42.5544 30.7629C42.7478 30.0927 43.4227 29.7063 43.9981 29.3846C44.6781 29.0038 45.427 28.7981 46.1983 28.722C46.9429 28.6489 46.9115 29.7726 46.1983 29.8674C45.9301 29.9035 45.6726 29.972 45.4219 30.0616C45.7967 30.5648 45.8826 31.1862 45.7104 31.8245C45.5264 32.5071 44.8808 33.4009 44.0793 33.3031C43.6322 33.2483 43.3615 32.7625 43.704 32.3974C43.9913 32.0923 44.3436 31.9044 44.5081 31.493C44.6382 31.1671 44.679 30.7914 44.5544 30.4692C44.0784 30.754 43.6819 31.2079 43.1366 31.3451C42.7928 31.4318 42.4528 31.1169 42.5544 30.7629Z" fill="#EE7C61"/>
</svg>
