<svg width="51" height="71" viewBox="0 0 51 71" fill="none" xmlns="http://www.w3.org/2000/svg">
<path d="M50.4 70.0095C50.0351 67.6438 49.0288 65.413 48.0445 63.5326C46.6206 60.8105 45.1128 58.8283 42.7993 57.6938C37.3826 55.0354 31.5226 54.1139 25.8897 52.8338C25.6406 52.7766 25.4107 52.7711 25.1989 52.8042C24.9872 52.7711 24.7569 52.777 24.5082 52.8338C18.8748 54.1143 13.0144 55.0354 7.59821 57.6938C5.28425 58.8283 3.77683 60.8105 2.35299 63.5326C1.36954 65.413 0.365297 67.6433 0.000427246 70.0095H50.4Z" fill="#FFB381"/>
<path d="M20.6436 38.4992C19.2736 37.1106 17.605 36.083 15.9024 35.6154C15.879 33.5382 15.0691 30.6918 13.543 29.4776C12.0356 28.2777 10.364 28.248 9.14083 28.9871C8.24478 29.528 7.32709 26.1458 5.32709 29.2124C4.21042 30.9252 5.25284 34.0983 4.64741 36.0944C3.55832 39.6884 -2.10904 44.898 3.93337 47.2921C7.37291 48.6553 27.4615 45.4118 20.6436 38.4992Z" fill="#17100A"/>
<path d="M1.84852 45.9227C3.21848 44.5341 32.2189 36.084 33.9214 35.6164C33.9448 33.5392 34.7547 30.6928 36.2808 29.4785C37.7882 28.2787 39.4598 28.249 40.683 28.9881C41.579 29.529 42.4967 26.1468 44.4967 29.2134C45.6134 30.9261 44.571 34.0992 45.1764 36.0954C46.2655 39.6894 51.9329 44.899 45.8904 47.2931C42.4505 48.6558 -4.96946 52.8353 1.84852 45.9227Z" fill="#17100A"/>
<path d="M29.8659 42.6234H20.5345V58.7193H29.8659V42.6234Z" fill="#FFB381"/>
<path d="M20.5345 47.8614C21.8803 48.9734 23.4807 49.6213 25.2002 49.6213C26.9198 49.6213 28.5201 48.9734 29.8659 47.8614V42.6234H20.5345V47.8614Z" fill="#FFB381"/>
<path d="M40.9422 12.7665C40.3016 5.76102 29.7993 2.70671 24.378 2.75296C18.392 2.80429 10.1154 5.54464 9.45311 12.7754C9.056 17.1127 8.8201 21.4895 8.88502 25.8458C8.94441 29.7826 8.64912 34.2815 9.89435 38.0652C11.8171 43.9077 19.1701 45.3341 24.3317 46.7868C24.6402 46.8738 24.9291 46.898 25.1977 46.8763C25.4667 46.898 25.7556 46.8738 26.064 46.7868C31.21 45.3392 38.1404 43.9934 40.3614 38.4173C41.795 34.8178 41.4009 30.3083 41.4976 26.5056C41.6139 21.9298 41.3593 17.3232 40.9422 12.7665Z" fill="#FFB381"/>
<path d="M10.0738 23.8331C10.0505 23.7712 10.0547 23.7835 10.0738 23.8331V23.8331Z" fill="#FFB381"/>
<path d="M10.9079 25.6222C10.7017 25.1199 10.4798 24.6443 10.2214 24.1687C10.1701 24.0741 10.1044 23.9111 10.0738 23.8331C10.0963 23.892 10.1417 24.0164 10.2244 24.2442C10.1387 24.0164 10.0433 23.7928 9.93761 23.573C9.44122 22.9251 9.41661 22.8984 9.86422 23.4941C9.40813 22.8526 8.59863 22.315 7.78021 22.2658C7.68985 22.2336 7.60245 22.1988 7.50317 22.1729C6.27364 21.8632 5.0229 22.3592 4.20364 23.2917C2.41535 25.3269 2.94314 28.4334 4.4896 30.4079C5.15654 31.2607 6.37886 31.8068 7.45268 31.7605C8.87694 31.699 10.0246 30.8059 10.6932 29.5844C11.3678 28.3524 11.4412 26.9205 10.9079 25.6222Z" fill="#FFB381"/>
<path d="M40.3266 23.8331C40.3504 23.7712 40.3461 23.7835 40.3266 23.8331V23.8331Z" fill="#FFB381"/>
<path d="M39.7072 29.5849C40.3762 30.8064 41.523 31.6994 42.9482 31.761C44.022 31.8072 45.2439 31.2612 45.9108 30.4084C47.4577 28.4339 47.9855 25.3269 46.1968 23.2922C45.3771 22.36 44.1272 21.8636 42.8972 22.1734C42.7984 22.1992 42.7106 22.234 42.6202 22.2663C41.8018 22.3151 40.9927 22.853 40.5362 23.4945C40.9838 22.8989 40.9596 22.9252 40.4632 23.5734C40.3576 23.7932 40.2617 24.0168 40.1764 24.2446C40.2587 24.0168 40.305 23.8925 40.3266 23.8335C40.2965 23.9116 40.2307 24.0745 40.1794 24.1691C39.9206 24.6447 39.6991 25.1203 39.4925 25.6227C38.9596 26.9205 39.033 28.3524 39.7072 29.5849Z" fill="#FFB381"/>
<path d="M22.3627 20.9952C24.6037 24.0295 26.5757 29.5123 22.5782 31.9985C22.2414 32.2081 22.2299 32.6078 22.4628 32.8963C23.3398 33.9833 24.6028 35.4309 26.123 35.094C26.3271 35.049 26.3928 34.7686 26.246 34.6286C25.2834 33.7096 24.1323 33.1615 23.2715 32.0876C23.2329 32.3872 23.1943 32.6863 23.1561 32.9854C27.5655 29.8394 25.7475 24.1725 22.8943 20.5853C22.6555 20.2858 22.1349 20.6867 22.3627 20.9952Z" fill="#D1722E"/>
<path d="M17.0623 29.8042C18.1198 29.8042 18.9771 28.443 18.9771 26.7639C18.9771 25.0848 18.1198 23.7236 17.0623 23.7236C16.0049 23.7236 15.1476 25.0848 15.1476 26.7639C15.1476 28.443 16.0049 29.8042 17.0623 29.8042Z" fill="#3C1E05"/>
<path d="M33.9622 29.8042C35.0196 29.8042 35.8769 28.443 35.8769 26.7639C35.8769 25.0848 35.0196 23.7236 33.9622 23.7236C32.9047 23.7236 32.0475 25.0848 32.0475 26.7639C32.0475 28.443 32.9047 29.8042 33.9622 29.8042Z" fill="#3C1E05"/>
<path d="M32.6347 4.47331C32.5897 4.24463 32.5065 4.05329 32.3979 3.89249C32.3852 3.83521 32.3742 3.77794 32.358 3.72109C31.8926 2.02911 29.9007 0.690546 28.1442 1.3278C25.9537 2.1233 23.647 0.518293 21.409 0.194153C18.7318 -0.192779 16.1069 0.0193551 13.4798 0.646422C9.10818 1.6897 5.24734 4.223 2.70047 7.90776C-1.95205 14.6396 0.502763 23.6867 7.90708 27.0197C10.1519 28.0299 12.2024 26.4058 11.8316 24.0028C11.7166 23.2561 11.6385 21.8135 11.801 21.6404C12.2257 21.1895 13.9881 20.9773 14.762 20.8233C18.5002 20.0791 22.3076 19.399 22.5668 14.7508C22.5808 14.4979 22.4382 13.1695 22.8341 13.1199C23.5125 13.0355 24.3551 13.4928 24.9864 13.7007C26.6033 14.2327 28.0954 14.0206 29.5082 13.0957C32.4891 11.1449 33.3033 7.84666 32.6347 4.47331Z" fill="#17100A"/>
<path d="M43.3364 10.5997C41.2816 5.78685 36.4509 3.18906 31.3182 3.04311C25.6185 2.88061 25.6342 11.7143 31.3173 11.8764C37.5939 12.0554 38.6444 15.6515 39.3971 20.7792C39.8956 24.1733 41.0199 24.7236 42.9384 22.2293C45.078 19.4478 44.5846 13.5255 43.3364 10.5997Z" fill="#17100A"/>
<path d="M13.4548 25.4414C13.6402 25.9535 13.9605 26.3761 14.4535 26.6264C14.93 26.8691 15.8544 26.9819 16.1323 26.3926C16.1934 26.2632 16.2019 26.085 16.0793 25.9832C15.5842 25.5712 14.7921 25.8911 14.5159 25.1487C14.2719 24.4902 13.2125 24.7711 13.4548 25.4414Z" fill="#3C1E05"/>
<path d="M37.3954 25.4414C37.21 25.9535 36.8896 26.3761 36.3966 26.6264C35.9202 26.8691 34.9957 26.9819 34.7178 26.3926C34.6567 26.2632 34.6482 26.085 34.7708 25.9832C35.266 25.5712 36.0581 25.8911 36.3343 25.1487C36.5782 24.4902 37.6376 24.7711 37.3954 25.4414Z" fill="#3C1E05"/>
<path d="M30.1484 36.9773C29.291 36.6193 28.3381 36.6184 27.4497 36.7164C27.2829 36.7279 27.1187 36.7546 26.9541 36.7962C26.4051 36.9099 25.8587 37.1352 25.3865 37.4648C24.9142 37.1352 24.3678 36.9095 23.8188 36.7962C23.6542 36.7546 23.49 36.7283 23.3232 36.7164C22.4344 36.6188 21.4815 36.6193 20.6245 36.9773C20.1612 37.1623 20.0364 37.8887 20.6338 38.3155C20.1124 39.5221 22.5655 41.3617 24.4709 41.4602C24.7611 41.4932 25.07 41.5047 25.386 41.4899C25.7025 41.5047 26.0123 41.4932 26.3016 41.4602C28.2078 41.3617 30.6601 39.5221 30.1391 38.3155C30.7365 37.8887 30.6117 37.1627 30.1484 36.9773Z" fill="#CA3231"/>
<path d="M21.5579 38.2896C21.5579 38.2896 25.7085 39.5267 29.3406 38.2896C29.3406 38.2896 25.19 41.2594 21.5579 38.2896Z" fill="white"/>
<path d="M31.3865 20.3231C32.7076 20.0057 34.2469 19.7745 35.526 20.3693C36.5918 20.864 38.4081 21.0214 38.4081 19.3566C38.4081 17.7588 36.4569 16.9709 35.1582 16.7868C33.4628 16.5467 31.8727 17.1848 30.3742 17.9204C28.9915 18.5993 29.9851 20.6595 31.3865 20.3231Z" fill="#17100A"/>
<path d="M46.5455 61.0443C41.0984 61.6748 34.4289 62.0477 27.2172 62.0477C18.2885 62.0477 10.1884 61.4767 4.21722 60.5505C3.549 61.4156 2.94145 62.4075 2.35256 63.5326C1.36911 65.413 0.36487 67.6434 0 70.0095H50.4C50.0351 67.6438 49.0288 65.413 48.0445 63.5326C47.565 62.6154 47.0725 61.7893 46.5455 61.0443Z" fill="#A72C5A"/>
</svg>
