<svg width="51" height="72" viewBox="0 0 51 72" fill="none" xmlns="http://www.w3.org/2000/svg">
<path d="M43.3062 30.2294H7.18124V68.9044H43.3062V30.2294Z" fill="#341908"/>
<path d="M29.917 44.3104H20.57V60.4337H29.917V44.3104Z" fill="#935D37"/>
<path d="M20.57 49.5566C21.9181 50.671 23.5216 51.32 25.2433 51.32C26.9662 51.32 28.5689 50.671 29.917 49.5566V44.3104H20.57V49.5566Z" fill="#6D4019"/>
<path d="M41.0129 14.4019C40.372 7.38468 29.8515 4.32468 24.42 4.371C18.4241 4.42243 10.1328 7.1675 9.46936 14.4108C9.07199 18.7555 8.83526 23.1394 8.90071 27.5033C8.95979 31.4469 8.66399 35.9532 9.91179 39.7437C11.8379 45.5968 19.2036 47.0253 24.3741 48.4805C24.6831 48.5676 24.9725 48.5918 25.2415 48.5701C25.5106 48.5918 25.8004 48.5676 26.1094 48.4805C31.2642 47.0299 38.207 45.6818 40.4315 40.0965C41.8675 36.4908 41.4723 31.973 41.5696 28.1638C41.6861 23.5801 41.4311 18.9659 41.0129 14.4019Z" fill="#935D37"/>
<path d="M50.487 71.7433C50.1211 69.3735 49.1134 67.1393 48.127 65.2557C46.7011 62.5285 45.1903 60.5433 42.8727 59.4064C37.4472 56.7438 31.5771 55.8207 25.9344 54.5376C25.6845 54.4807 25.4541 54.4752 25.2425 54.5083C25.03 54.4752 24.8001 54.4811 24.551 54.5376C18.9074 55.8207 13.0369 56.7438 7.61136 59.4064C5.29341 60.5433 3.78338 62.5281 2.35708 65.2557C1.37193 67.1389 0.365958 69.3735 0.000457764 71.7433H50.487Z" fill="#935D37"/>
<path d="M8.82047 25.9169C6.02822 23.3869 1.88191 23.2399 2.10036 28.1019C2.17219 29.6578 2.84411 31.1581 3.95634 32.249C5.42132 33.686 7.50169 33.992 9.43969 33.5993C10.5213 33.38 11.2778 32.2405 11.2778 31.1844C11.2787 29.0501 10.2196 27.1847 8.82047 25.9169Z" fill="#935D37"/>
<path d="M41.6671 25.9169C44.4593 23.3869 48.6056 23.2399 48.3867 28.1019C48.3153 29.6578 47.643 31.1581 46.5308 32.249C45.0658 33.686 42.9854 33.992 41.0474 33.5993C39.9666 33.38 39.2097 32.2405 39.2097 31.1844C39.2089 29.0501 40.2684 27.1847 41.6671 25.9169Z" fill="#935D37"/>
<path d="M22.3274 22.0426C24.9016 25.3576 24.3338 30.5715 21.5586 33.6056C21.3775 33.8041 21.341 34.0676 21.4689 34.3056C21.9228 35.1569 22.5314 35.7748 23.2492 36.4204C23.8144 36.9287 24.6555 36.0919 24.0852 35.5844C23.8361 35.3626 22.4549 34.3205 22.797 33.8551C23.2543 33.2316 23.6036 32.5648 23.9224 31.8627C24.4468 30.7092 24.6776 29.4682 24.8004 28.2162C25.0389 25.8077 24.2768 23.4685 22.7401 21.6287C22.4957 21.3359 22.1021 21.7519 22.3274 22.0426Z" fill="#6D4019"/>
<path d="M16.4607 30.0535C17.4144 30.0535 18.1875 29.1021 18.1875 27.9285C18.1875 26.7549 17.4144 25.8035 16.4607 25.8035C15.507 25.8035 14.7339 26.7549 14.7339 27.9285C14.7339 29.1021 15.507 30.0535 16.4607 30.0535Z" fill="#271107"/>
<path d="M34.0268 30.0535C34.9805 30.0535 35.7536 29.1021 35.7536 27.9285C35.7536 26.7549 34.9805 25.8035 34.0268 25.8035C33.0732 25.8035 32.3 26.7549 32.3 27.9285C32.3 29.1021 33.0732 30.0535 34.0268 30.0535Z" fill="#271107"/>
<path d="M8.09838 28.9348C7.90501 28.2645 7.23011 27.8782 6.65466 27.5561C5.97466 27.1757 5.22581 26.9696 4.45443 26.8939C3.70983 26.8208 3.74128 27.9441 4.45443 28.0393C4.72261 28.075 4.98016 28.1438 5.23091 28.2335C4.85606 28.7367 4.77021 29.3576 4.94233 29.9964C5.12636 30.679 5.77193 31.5727 6.57348 31.475C7.02058 31.4206 7.29131 30.9344 6.94876 30.5697C6.66146 30.2646 6.30913 30.0767 6.14466 29.6653C6.01461 29.3398 5.97381 28.9637 6.09833 28.6415C6.57433 28.9258 6.97086 29.3802 7.51613 29.517C7.86038 29.6033 8.19996 29.2884 8.09838 28.9348Z" fill="#6D4019"/>
<path d="M42.3891 28.9348C42.5825 28.2645 43.2574 27.8782 43.8324 27.5561C44.5124 27.1757 45.2617 26.9696 46.0331 26.8939C46.7777 26.8208 46.7462 27.9441 46.0331 28.0393C45.7649 28.075 45.5069 28.1438 45.2562 28.2335C45.6315 28.7367 45.7169 29.3576 45.5452 29.9964C45.3607 30.679 44.7152 31.5727 43.914 31.475C43.4665 31.4206 43.1962 30.9344 43.5387 30.5697C43.8261 30.2646 44.178 30.0767 44.3424 29.6653C44.4729 29.3398 44.5133 28.9637 44.3888 28.6415C43.9132 28.9258 43.5162 29.3802 42.9709 29.517C42.6271 29.6033 42.2871 29.2884 42.3891 28.9348Z" fill="#6D4019"/>
<path d="M13.3466 21.9844C14.3921 21.253 15.5324 20.9679 16.7972 20.9415C18.1551 20.913 18.9787 21.6457 19.9596 22.4481C20.1207 22.5799 20.4327 22.5148 20.4127 22.2603C20.2996 20.783 18.7985 19.9759 17.4423 19.8624C15.7538 19.7213 14.1639 20.2959 12.8392 21.3266C12.4652 21.619 12.959 22.2556 13.3466 21.9844Z" fill="#341908"/>
<path d="M44.9871 21.4434C43.8273 19.7272 44.3322 17.6269 44.3904 15.6608C44.4592 13.3242 43.8319 10.9641 42.9309 8.82894C41.3049 4.97759 38.1969 2.59972 34.4212 1.04294C31.3293 -0.232059 27.5506 -0.152584 24.2972 0.305566C22.5407 0.552916 20.8615 1.02849 19.3893 2.04637C17.8045 3.14244 17.422 4.31077 17.2601 6.11022C17.187 6.92197 18.1033 7.61132 18.8747 7.46809C19.4688 9.57524 19.9312 11.4814 21.2466 13.4631C22.9389 16.0131 25.0333 18.2236 27.3963 20.1586C31.2885 23.3457 37.465 27.1889 42.7826 26.3751C44.9573 26.0423 46.3178 23.412 44.9871 21.4434Z" fill="#341908"/>
<path d="M9.11159 25.3419C9.81369 18.567 12.2392 8.42774 20.2704 6.92877C23.5692 6.31337 22.1786 1.2393 18.8815 1.89252C14.3425 2.79182 10.8235 6.07537 8.97049 10.2242C6.93474 14.7819 5.77406 20.771 7.54334 25.554C7.86379 26.4222 9.01809 26.2442 9.11159 25.3419Z" fill="#341908"/>
<path d="M9.20343 38.3009C9.20343 39.3005 8.39338 40.1106 7.39378 40.1106C6.39376 40.1106 5.58371 39.3001 5.58371 38.3009V33.8457C5.58371 32.8461 6.39376 32.036 7.39378 32.036C8.39338 32.036 9.20343 32.8465 9.20343 33.8457V38.3009Z" fill="#F4A92A"/>
<path d="M44.9034 38.3009C44.9034 39.3005 44.0934 40.1106 43.0938 40.1106C42.0933 40.1106 41.2833 39.3001 41.2833 38.3009V33.8457C41.2833 32.8461 42.0933 32.036 43.0938 32.036C44.0934 32.036 44.9034 32.8465 44.9034 33.8457V38.3009Z" fill="#F4A92A"/>
<path d="M19.9563 39.4531C19.9563 39.4531 25.7452 38.4561 30.5315 39.4531C30.5311 39.4531 25.6275 48.7912 19.9563 39.4531Z" fill="#341908"/>
<path d="M25.2433 41.0623C23.9403 41.0623 22.749 41.3887 21.8276 41.9267C24.613 44.7415 27.0768 43.495 28.6654 41.9305C27.7427 41.3899 26.5493 41.0623 25.2433 41.0623Z" fill="#E04444"/>
<path d="M42.8727 59.4069C41.0393 58.5072 39.1548 57.8089 37.2449 57.2254L26.0096 68.4611L14.4262 56.8777C12.1112 57.5276 9.82345 58.321 7.6109 59.4073C5.29295 60.5442 3.78292 62.529 2.35662 65.2566C1.37147 67.1398 0.3655 69.3744 0 71.7442H50.487C50.1211 69.3744 49.1134 67.1402 48.127 65.2566C46.7011 62.5285 45.1907 60.5434 42.8727 59.4069Z" fill="#EEAC00"/>
</svg>
