<svg width="55" height="74" viewBox="0 0 55 74" fill="none" xmlns="http://www.w3.org/2000/svg">
<path d="M25.7391 37.3691C23.5589 35.4179 20.3624 36.2726 19.427 39.0355C19.4266 39.0368 19.4262 39.038 19.4257 39.0389C19.4206 38.0614 19.254 37.0597 19.0092 36.0694C18.7185 34.8943 16.8324 35.1323 16.8898 36.3563C16.965 37.9577 16.8532 39.8944 15.7894 41.1962C14.7257 42.4984 12.8756 42.988 11.3002 43.2753C9.66306 43.5736 8.19978 43.8996 6.97238 45.0888C5.40158 46.6107 5.56138 48.6685 5.57668 50.6592C5.58433 51.6074 3.98166 52.094 3.28593 52.5467C1.81713 53.5021 0.857058 54.755 0.303283 56.4142C-0.809792 59.7491 1.26973 64.4492 4.43768 65.8623C10.38 68.5139 17.8643 64.187 22.2596 60.3008C28.8395 54.483 33.4771 44.2953 25.7391 37.3691Z" fill="#FFE780"/>
<path d="M31.8812 60.3008C36.2766 64.187 43.7604 68.5139 49.7032 65.8624C52.8707 64.4492 54.9506 59.7492 53.8376 56.4142C53.2838 54.7554 52.3237 53.5021 50.8549 52.5467C50.1592 52.0941 48.5569 51.6074 48.5642 50.6593C48.5795 48.6686 48.7393 46.6103 47.1685 45.0888C45.9411 43.8996 44.4778 43.5737 42.8407 43.2753C41.2652 42.988 39.4148 42.4988 38.3514 41.1962C37.2876 39.8944 37.1759 37.9573 37.2511 36.3563C37.3085 35.1323 35.4219 34.8947 35.1316 36.0694C34.8868 37.0597 34.7198 38.0618 34.7151 39.0389C34.7147 39.0381 34.7143 39.0368 34.7138 39.0355C33.7788 36.273 30.582 35.4179 28.4017 37.3691C20.6638 44.2953 25.3014 54.483 31.8812 60.3008Z" fill="#FFE780"/>
<path d="M31.7439 46.3651H22.3965V62.4883H31.7439V46.3651Z" fill="#FFB381"/>
<path d="M22.3965 51.6113C23.7446 52.7257 25.3481 53.3746 27.0698 53.3746C28.7923 53.3746 30.3958 52.7257 31.7439 51.6113V46.3651H22.3965V51.6113Z" fill="#FFB381"/>
<path d="M42.8389 16.4565C42.198 9.43936 31.6775 6.37936 26.2464 6.42569C20.2501 6.47711 11.9592 9.22219 11.2958 16.4655C10.898 20.8102 10.6617 25.1941 10.7271 29.558C10.7862 33.5016 10.4904 38.0079 11.7374 41.7984C13.6639 47.6515 21.0291 49.08 26.2005 50.5352C26.5095 50.6223 26.7981 50.6465 27.068 50.6248C27.337 50.6465 27.6264 50.6223 27.9354 50.5352C33.0902 49.0846 40.033 47.7365 42.2575 42.1512C43.6935 38.5455 43.2983 34.0277 43.3956 30.2185C43.5121 25.6348 43.2571 21.0206 42.8389 16.4565Z" fill="#FFB381"/>
<path d="M52.3134 73.7979C51.9484 71.4281 50.9407 69.1939 49.9543 67.3103C48.5284 64.5831 47.0175 62.5979 44.7 61.461C39.2744 58.7984 33.4043 57.8753 27.7616 56.5922C27.5117 56.5353 27.2809 56.5297 27.0693 56.5629C26.8568 56.5297 26.6269 56.5357 26.3778 56.5922C20.7342 57.8753 14.8637 58.7984 9.43775 61.461C7.12022 62.5979 5.6102 64.5826 4.18347 67.3103C3.19832 69.1934 2.19277 71.4281 1.8277 73.7979H52.3134Z" fill="#FFB381"/>
<path d="M10.6465 27.9715C7.85505 25.4415 3.70875 25.2944 3.92678 30.1564C3.99818 31.7124 4.67053 33.2126 5.78275 34.3036C7.24773 35.7405 9.3281 36.0465 11.2661 35.6538C12.3477 35.4345 13.1038 34.2951 13.1038 33.239C13.1047 31.1046 12.046 29.2393 10.6465 27.9715Z" fill="#FFB381"/>
<path d="M43.4939 27.9715C46.2853 25.4415 50.4316 25.2944 50.2135 30.1564C50.1421 31.7124 49.4698 33.2126 48.3576 34.3036C46.8926 35.7405 44.8122 36.0465 42.8742 35.6538C41.7926 35.4345 41.0365 34.2951 41.0365 33.239C41.0357 31.1046 42.0944 29.2393 43.4939 27.9715Z" fill="#FFB381"/>
<path d="M24.1538 24.0973C26.728 27.4123 26.1602 32.6262 23.385 35.6602C23.2039 35.8587 23.1674 36.1222 23.2953 36.3602C23.7492 37.2115 24.3578 37.8294 25.0756 38.475C25.6409 38.9833 26.482 38.1465 25.9116 37.639C25.6626 37.4172 24.2813 36.3751 24.6234 35.9097C25.0807 35.2862 25.4301 34.6194 25.7488 33.9173C26.2733 32.7639 26.5041 31.5229 26.6269 30.2708C26.8653 27.8623 26.1033 25.5231 24.5665 23.6833C24.3221 23.3905 23.9285 23.8066 24.1538 24.0973Z" fill="#EE7C61"/>
<path d="M18.2867 32.1081C19.2404 32.1081 20.0135 31.1567 20.0135 29.9831C20.0135 28.8095 19.2404 27.8581 18.2867 27.8581C17.333 27.8581 16.5599 28.8095 16.5599 29.9831C16.5599 31.1567 17.333 32.1081 18.2867 32.1081Z" fill="#271107"/>
<path d="M35.8528 32.1081C36.8065 32.1081 37.5796 31.1567 37.5796 29.9831C37.5796 28.8095 36.8065 27.8581 35.8528 27.8581C34.8991 27.8581 34.126 28.8095 34.126 29.9831C34.126 31.1567 34.8991 32.1081 35.8528 32.1081Z" fill="#271107"/>
<path d="M10.0914 30.9895C9.89802 30.3192 9.22312 29.9329 8.64725 29.6108C7.96725 29.2304 7.21882 29.0243 6.44745 28.9486C5.70285 28.8755 5.7343 29.9988 6.44745 30.094C6.71562 30.1297 6.97275 30.1985 7.2235 30.2882C6.84907 30.7914 6.7628 31.4123 6.93535 32.0511C7.11895 32.7337 7.76452 33.6274 8.5665 33.5297C9.01317 33.4753 9.28432 32.9891 8.94177 32.6244C8.65447 32.3193 8.30172 32.1314 8.13725 31.72C8.00762 31.3945 7.9664 31.0184 8.09092 30.6962C8.56735 30.9805 8.96345 31.4349 9.50872 31.5717C9.85297 31.658 10.1925 31.3431 10.0914 30.9895Z" fill="#EE7C61"/>
<path d="M44.3818 30.9895C44.5743 30.3192 45.2492 29.9329 45.8251 29.6108C46.5051 29.2304 47.2535 29.0243 48.0249 28.9486C48.7695 28.8755 48.738 29.9988 48.0249 30.094C47.7567 30.1297 47.4996 30.1985 47.2488 30.2882C47.6232 30.7914 47.7095 31.4123 47.5378 32.0511C47.3534 32.7337 46.7078 33.6274 45.9058 33.5297C45.4591 33.4753 45.188 32.9891 45.5314 32.6244C45.8178 32.3193 46.1706 32.1314 46.3351 31.72C46.4647 31.3945 46.5059 31.0184 46.3814 30.6962C45.905 30.9805 45.5089 31.4349 44.9636 31.5717C44.6193 31.658 44.2798 31.3431 44.3818 30.9895Z" fill="#EE7C61"/>
<path d="M28.4319 3.4426C28.0975 0.439128 24.5993 -0.517122 21.6511 0.255528C18.359 1.1187 15.1821 3.02058 12.3359 4.8383C9.11696 6.8936 6.97453 9.60468 5.52188 13.1764C3.69141 17.6775 5.57075 22.5846 7.03743 26.8801C7.42673 28.0199 8.39955 28.9026 9.66308 28.8788C9.99925 28.8725 10.332 28.8155 10.6627 28.7543C12.6649 28.3829 12.9985 26.1656 12.123 24.7049C12.568 24.421 13.0469 24.1915 13.511 23.9408C14.7644 23.2638 15.6777 22.3317 16.1656 20.9704C16.588 19.7919 16.628 18.6015 16.5026 17.3673C16.3301 15.6699 16.3823 15.3141 18.0475 14.5789C21.1644 13.2027 24.4714 14.1866 27.1735 11.6489C29.5552 9.41045 29.12 6.29223 28.4319 3.4426Z" fill="#FFE780"/>
<path d="M26.9679 11.6489C29.6687 14.1862 32.9769 13.2023 36.0939 14.5789C37.759 15.3141 37.8105 15.6699 37.6388 17.3673C37.5134 18.6015 37.5525 19.7919 37.9749 20.9704C38.4637 22.3321 39.3762 23.2638 40.6295 23.9408C41.0936 24.1915 41.5734 24.4206 42.0184 24.7049C41.1425 26.1656 41.4765 28.3829 43.4778 28.7543C43.8089 28.8159 44.1413 28.8729 44.4783 28.8788C45.7409 28.9026 46.7146 28.0199 47.1039 26.8801C48.5706 22.5846 50.45 17.6775 48.6186 13.1764C47.166 9.60468 45.0244 6.8936 41.8055 4.8383C38.9592 3.021 35.7824 1.1187 32.4903 0.255528C29.5417 -0.517122 26.0431 0.439128 25.7086 3.4426C25.0205 6.29223 24.5845 9.41045 26.9679 11.6489Z" fill="#FFE780"/>
<path d="M17.2544 24.0096C17.8762 23.7487 18.5077 23.5579 19.1686 23.4261C19.9158 23.2769 20.5516 23.1477 20.9974 22.4737C21.1517 22.2404 21.1576 21.8566 20.9974 21.6241C20.0569 20.262 17.8239 20.8247 16.486 21.2212C15.7308 21.4452 15.2642 22.2289 15.4758 22.9998C15.6649 23.6858 16.5264 24.3156 17.2544 24.0096Z" fill="#FFE780"/>
<path d="M37.6545 21.2212C36.3174 20.8247 34.0845 20.2624 33.144 21.6241C32.9829 21.8566 32.9897 22.2404 33.144 22.4737C33.5392 23.0717 34.0637 23.2336 34.7326 23.3849C35.4755 23.5528 36.1793 23.713 36.8857 24.0101C37.6137 24.3161 38.476 23.6862 38.6647 23.0003C38.8772 22.2289 38.4101 21.4448 37.6545 21.2212Z" fill="#FFE780"/>
<path d="M49.9543 67.3103C48.5284 64.5831 47.0175 62.5979 44.7 61.461C41.1729 59.73 37.4576 58.7355 33.7388 57.8978C32.956 60.2162 30.2717 61.9272 27.0706 61.9272C23.8695 61.9272 21.1843 60.2158 20.4019 57.8974C16.6823 58.7351 12.9661 59.7296 9.43775 61.461C7.12022 62.5979 5.6102 64.5826 4.18347 67.3103C3.19832 69.1935 2.19277 71.4281 1.8277 73.7979H52.3139C51.9479 71.4281 50.9403 69.1939 49.9543 67.3103Z" fill="#84C8F0"/>
<path d="M33.7376 57.9029C32.9522 60.2188 30.2691 61.9277 27.0702 61.9277C23.8712 61.9277 21.1877 60.2188 20.4028 57.9021C19.2383 58.1647 18.0738 58.4372 16.9152 58.7483L23.3667 73.7979H30.7728L37.2243 58.7491C36.0661 58.438 34.9016 58.1656 33.7376 57.9029Z" fill="white"/>
<path d="M22.609 41.9076C24.6426 44.5375 29.2909 44.1665 31.0474 41.4329C31.4937 40.7388 30.3895 40.1001 29.9467 40.789C28.5896 42.9008 25.0158 42.9527 23.51 41.0062C23.0081 40.3563 22.1126 41.2658 22.609 41.9076Z" fill="#EB645F"/>
</svg>
