<svg width="51" height="75" viewBox="0 0 51 75" fill="none" xmlns="http://www.w3.org/2000/svg">
<path d="M29.9171 46.9774H20.5697V63.1007H29.9171V46.9774Z" fill="#FFB381"/>
<path d="M20.5697 52.2236C21.9178 53.3384 23.5213 53.9874 25.243 53.9874C26.9655 53.9874 28.569 53.3384 29.9171 52.2236V46.9774H20.5697V52.2236Z" fill="#FFB381"/>
<path d="M41.0121 17.0688C40.3712 10.0512 29.8508 6.99167 24.4197 7.03799C18.4234 7.08942 10.1325 9.83449 9.46904 17.0778C9.07124 21.4225 8.83494 25.806 8.90039 30.1703C8.95947 34.1135 8.66366 38.6202 9.91061 42.4108C11.8371 48.2639 19.2024 49.6927 24.3738 51.1479C24.6828 51.2346 24.9713 51.2593 25.2412 51.2376C25.5102 51.2593 25.7997 51.2346 26.1086 51.1479C31.2635 49.697 38.2063 48.3489 40.4307 42.7639C41.8668 39.1582 41.4715 34.64 41.5689 30.8308C41.6853 26.2471 41.4303 21.6325 41.0121 17.0688Z" fill="#FFB381"/>
<path d="M50.4867 74.4102C50.1216 72.0408 49.1139 69.8062 48.1275 67.9226C46.7016 65.1949 45.1907 63.2102 42.8732 62.0733C37.4477 59.4107 31.5776 58.4876 25.9348 57.2045C25.6849 57.148 25.4542 57.1424 25.2425 57.1756C25.03 57.1424 24.8001 57.1484 24.551 57.2045C18.9075 58.488 13.0369 59.4107 7.61097 62.0733C5.29344 63.2102 3.78342 65.1949 2.35669 67.9226C1.37154 69.8062 0.365991 72.0404 0.000915527 74.4102H50.4867Z" fill="#FFB381"/>
<path d="M8.81968 28.5838C6.02828 26.0542 1.88197 25.9067 2.1 30.7687C2.1714 32.3246 2.84375 33.8249 3.95597 34.9158C5.42095 36.3532 7.50133 36.6592 9.43933 36.2665C10.521 36.0472 11.277 34.9078 11.277 33.8516C11.2779 31.7173 10.2192 29.8511 8.81968 28.5838Z" fill="#FFB381"/>
<path d="M41.6671 28.5838C44.4585 26.0542 48.6048 25.9067 48.3868 30.7687C48.3154 32.3246 47.643 33.8249 46.5308 34.9158C45.0658 36.3532 42.9855 36.6592 41.0475 36.2665C39.9659 36.0472 39.2098 34.9078 39.2098 33.8516C39.2089 31.7173 40.2676 29.8511 41.6671 28.5838Z" fill="#FFB381"/>
<path d="M22.327 24.7094C24.9012 28.0244 24.3334 33.2379 21.5582 36.2724C21.3771 36.4713 21.3406 36.7344 21.4685 36.9724C21.9224 37.8237 22.531 38.4416 23.2488 39.0876C23.8141 39.5955 24.6552 38.7591 24.0848 38.2516C23.8358 38.0298 22.4545 36.9873 22.7966 36.5219C23.2539 35.8984 23.6033 35.232 23.922 34.5295C24.4465 33.376 24.6773 32.135 24.8001 30.8834C25.0385 28.4749 24.2765 26.1357 22.7397 24.2959C22.4953 24.0027 22.1018 24.4183 22.327 24.7094Z" fill="#EE7C61"/>
<path d="M16.4599 32.7199C17.4136 32.7199 18.1867 31.7685 18.1867 30.5949C18.1867 29.4212 17.4136 28.4698 16.4599 28.4698C15.5063 28.4698 14.7332 29.4212 14.7332 30.5949C14.7332 31.7685 15.5063 32.7199 16.4599 32.7199Z" fill="#271107"/>
<path d="M34.026 32.7199C34.9797 32.7199 35.7528 31.7685 35.7528 30.5949C35.7528 29.4212 34.9797 28.4698 34.026 28.4698C33.0724 28.4698 32.2993 29.4212 32.2993 30.5949C32.2993 31.7685 33.0724 32.7199 34.026 32.7199Z" fill="#271107"/>
<path d="M8.26461 31.6018C8.07123 30.9311 7.39633 30.5452 6.82046 30.2231C6.14046 29.8427 5.39204 29.6366 4.62066 29.5605C3.87606 29.4874 3.90751 30.6111 4.62066 30.7059C4.88884 30.742 5.14596 30.8104 5.39671 30.9001C5.02229 31.4033 4.93601 32.0246 5.10856 32.663C5.29216 33.3455 5.93774 34.2393 6.73971 34.1416C7.18638 34.0867 7.45753 33.6014 7.11498 33.2359C6.82768 32.9307 6.47493 32.7429 6.31046 32.3315C6.18083 32.0055 6.13961 31.6298 6.26413 31.3077C6.74056 31.5924 7.13666 32.0463 7.68193 32.1836C8.02618 32.2703 8.36576 31.9554 8.26461 31.6018Z" fill="#EE7C61"/>
<path d="M42.5548 31.6018C42.7473 30.9311 43.4222 30.5452 43.9981 30.2231C44.6781 29.8427 45.4265 29.6366 46.1979 29.5605C46.9425 29.4874 46.911 30.6111 46.1979 30.7059C45.9297 30.742 45.6726 30.8104 45.4219 30.9001C45.7963 31.4033 45.8825 32.0246 45.7109 32.663C45.5264 33.3455 44.8808 34.2393 44.0789 34.1416C43.6322 34.0867 43.361 33.6014 43.7044 33.2359C43.9909 32.9307 44.3436 32.7429 44.5081 32.3315C44.6377 32.0055 44.679 31.6298 44.5544 31.3077C44.078 31.5924 43.6819 32.0463 43.1366 32.1836C42.7924 32.2703 42.4528 31.9554 42.5548 31.6018Z" fill="#EE7C61"/>
<path d="M21.2326 42.0691C22.7894 44.3178 27.2863 44.1448 28.6701 41.7231L21.2326 42.0691Z" fill="white"/>
<path d="M38.3707 5.82371C30.1376 -4.83784 15.2979 0.984237 7.12815 8.60534C6.4524 9.23519 4.4209 10.8217 4.62617 12.0525C4.87395 13.5392 7.42395 13.6331 8.40655 13.9225C8.12775 14.3841 7.81877 14.8197 7.50215 15.2523C6.2229 17.0012 5.08432 18.8721 3.82292 20.6354C3.16587 21.5538 3.5454 22.9351 4.6912 22.9801C11.2825 23.2385 16.55 18.9622 22.463 16.5448C22.0745 17.0373 21.6389 17.4938 21.1803 17.9358C20.1501 18.9294 21.2874 20.4276 22.3754 20.2312C25.9412 19.5865 29.3969 17.9804 32.4233 15.7912C34.7625 14.0989 40.8408 9.02354 38.3707 5.82371Z" fill="black"/>
<path d="M11.2978 29.4088C11.631 27.3615 11.6875 25.3946 11.6866 23.3228C11.6858 21.0426 11.9905 18.6218 11.5285 16.3842C11.2905 15.2303 9.53358 15.0127 9.00403 16.054C7.10174 19.7931 8.31001 25.0971 8.83871 29.0764C9.00616 30.3353 11.0491 30.9371 11.2978 29.4088Z" fill="black"/>
<path d="M43.6276 14.2199C43.0474 12.0108 41.7822 10.117 39.3725 8.87811C37.2615 7.79266 34.5921 8.69111 33.9316 11.0915C33.5704 12.4039 33.9418 13.5969 34.7081 14.4469C34.859 15.1324 35.0723 15.7733 35.2835 16.2706C36.0592 18.1019 37.4761 19.9171 39.5786 20.0777C39.5981 20.8941 39.6381 21.7084 39.6521 22.5045C39.6938 24.8488 39.6683 27.0881 40.0465 29.409C40.2951 30.9373 42.3381 30.3355 42.5051 29.0762C43.0734 24.8016 44.8375 18.8252 43.6276 14.2199Z" fill="black"/>
<path d="M15.4441 25.919C15.9307 25.641 16.445 25.6351 16.9218 25.5454C17.2232 25.4885 17.3502 25.4583 17.5963 25.4332C18.3048 25.361 18.7506 25.0864 19.2525 24.6062C19.8505 24.0345 19.9351 22.8441 19.2525 22.2873C18.7825 21.9031 18.2559 21.4556 17.5963 21.5104C17.0213 21.5576 16.4395 21.6218 15.8831 21.7778C14.813 22.0774 13.926 22.8976 13.3183 23.7927C12.4117 25.1281 14.153 26.6564 15.4441 25.919Z" fill="black"/>
<path d="M34.9223 25.919C34.4357 25.641 33.9214 25.6351 33.4445 25.5454C33.1428 25.4885 33.0162 25.4583 32.7701 25.4332C32.0612 25.361 31.6154 25.0864 31.1134 24.6062C30.5159 24.0345 30.4313 22.8441 31.1134 22.2873C31.5839 21.9031 32.1105 21.4556 32.7701 21.5104C33.3447 21.5576 33.9269 21.6218 34.4832 21.7778C35.5534 22.0774 36.4399 22.8976 37.0481 23.7927C37.9551 25.1281 36.2138 26.6564 34.9223 25.919Z" fill="black"/>
<path d="M8.46257 74.4102H42.3933C42.6253 70.1172 43.2259 66.1677 44.0992 62.8191C43.7138 62.5442 43.3117 62.2887 42.8731 62.0737C40.8208 61.0664 38.7047 60.3091 36.5614 59.686C34.4415 63.5761 30.2519 66.2255 25.4277 66.2255C20.5666 66.2255 16.3506 63.5344 14.2464 59.5947C11.9926 60.2351 9.76604 61.0159 7.61002 62.0737C7.29042 62.2305 6.98909 62.4069 6.69839 62.596C7.60407 65.9909 8.22542 70.0225 8.46257 74.4102Z" fill="#8A827F"/>
</svg>
