<svg width="57" height="79" viewBox="0 0 57 79" fill="none" xmlns="http://www.w3.org/2000/svg">
<path d="M33.1847 49.5698H22.8165V67.4546H33.1847V49.5698Z" fill="#898989"/>
<path d="M22.8165 55.3892C24.3119 56.6258 26.0901 57.3457 28.0008 57.3457C29.9115 57.3457 31.6898 56.6258 33.1847 55.3892V49.5698H22.8165V55.3892Z" fill="#727272"/>
<path d="M45.493 16.3936C44.7811 8.60928 33.1112 5.21542 27.0868 5.26681C20.4358 5.32385 11.2386 8.36885 10.5026 16.4035C10.0619 21.223 9.79926 26.0853 9.87186 30.9265C9.93739 35.3005 9.60928 40.2995 10.9934 44.5043C13.1299 50.9969 21.3004 52.5818 27.0358 54.196C27.3786 54.2922 27.6996 54.3195 27.998 54.2955C28.2969 54.3195 28.618 54.2922 28.9607 54.196C34.6787 52.5865 42.3796 51.0911 44.8471 44.896C46.4401 40.8964 46.0026 35.8846 46.1101 31.6591C46.2392 26.5747 45.9559 21.4559 45.493 16.3936Z" fill="#898989"/>
<path d="M56.0026 80C55.5967 77.3718 54.4789 74.893 53.3852 72.8036C51.8031 69.7779 50.1276 67.5763 47.5569 66.3152C41.5381 63.3617 35.0266 62.3377 28.7674 60.9145C28.4907 60.8518 28.2351 60.8456 27.9994 60.8824C27.7646 60.8456 27.5087 60.8522 27.2324 60.9145C20.9722 62.3382 14.4603 63.3617 8.44244 66.3152C5.87077 67.5763 4.19623 69.7779 2.6141 72.8036C1.52132 74.893 0.405433 77.3713 0 80H56.0026Z" fill="#898989"/>
<path d="M11.193 28.6911C11.1668 28.6209 11.1711 28.6352 11.193 28.6911V28.6911Z" fill="#FFB381"/>
<path d="M12.1196 30.6785C11.8905 30.1203 11.6439 29.5909 11.3563 29.0624C11.2993 28.9578 11.2267 28.7772 11.1927 28.6905C11.2173 28.756 11.2682 28.8932 11.3596 29.1463C11.2649 28.8932 11.1588 28.6447 11.0409 28.4015C10.4894 27.6816 10.4625 27.6519 10.9599 28.3133C10.4526 27.6005 9.55356 27.0027 8.64417 26.949C8.54375 26.9122 8.44616 26.8736 8.33632 26.8457C6.96963 26.5007 5.58032 27.0527 4.66998 28.0889C2.68241 30.3504 3.26887 33.8018 4.98772 35.9963C5.72882 36.9434 7.08655 37.5497 8.27975 37.4983C9.86282 37.4299 11.1381 36.4385 11.881 35.0803C12.6306 33.7117 12.7126 32.1202 12.1196 30.6785Z" fill="#898989"/>
<path d="M44.8093 28.6911C44.836 28.6209 44.8313 28.6352 44.8093 28.6911V28.6911Z" fill="#FFB381"/>
<path d="M44.121 35.0807C44.864 36.4389 46.1388 37.4304 47.7223 37.4987C48.9155 37.5501 50.2732 36.9438 51.0143 35.9967C52.7332 33.8022 53.3196 30.3504 51.3321 28.0894C50.4213 27.0536 49.0324 26.5011 47.6657 26.8462C47.5559 26.874 47.4583 26.9127 47.3579 26.9494C46.4485 27.0027 45.5495 27.601 45.0422 28.3138C45.5396 27.6523 45.5127 27.6816 44.9611 28.4019C44.8433 28.6452 44.7372 28.8936 44.6424 29.1468C44.7339 28.8936 44.7853 28.7564 44.8093 28.6909C44.7758 28.7777 44.7028 28.9582 44.6457 29.0629C44.3582 29.5914 44.1116 30.1208 43.8825 30.679C43.2894 32.1201 43.3715 33.7117 44.121 35.0807Z" fill="#898989"/>
<path d="M44.3926 9.38814C42.7416 6.09376 39.6481 2.51982 36.0935 1.21441C33.6812 0.32859 31.0458 0 28.4869 0C21.3004 0 15.843 2.92666 12.4803 9.38814C9.43106 15.2485 8.2949 21.9665 9.05155 28.5218C9.16847 29.5368 10.7044 29.5952 10.6794 28.5218C10.612 25.6059 10.9208 22.7632 11.635 19.9346C12.295 17.3186 13.6608 15.0387 14.8045 12.6302C15.447 11.2758 16.1532 9.95245 17.0263 8.79696C19.086 10.8449 23.444 12.2573 28.4874 12.2573C33.4751 12.2573 37.7906 10.875 39.8782 8.86438C40.6489 9.91143 41.2925 11.0938 41.9147 12.3162C44.6015 17.5911 46.3335 22.5129 46.1935 28.5218C46.1685 29.5952 47.7044 29.5368 47.8214 28.5218C48.587 21.9005 47.3702 15.3296 44.3926 9.38814Z" fill="#898989"/>
<path d="M53.6035 72.6145C52.0214 69.5889 50.3459 67.3873 47.7752 66.1262C43.9924 64.2697 40.0144 63.176 36.0265 62.2661C36.0892 62.5636 36.1307 62.8658 36.1307 63.1764C36.1307 66.4279 32.5888 69.0642 28.2196 69.0642C23.8494 69.0642 20.308 66.4279 20.308 63.1764C20.308 62.8658 20.3499 62.5631 20.4122 62.2656C16.4238 63.176 12.4449 64.2697 8.66074 66.1262C6.08906 67.3873 4.41453 69.5889 2.8324 72.6145C1.73961 74.7039 0.623726 77.1823 0.218292 79.811H56.2214C55.815 77.1823 54.6972 74.7039 53.6035 72.6145Z" fill="#4C4C4C"/>
</svg>
